G75*
%MOIN*%
%OFA0B0*%
%FSLAX25Y25*%
%IPPOS*%
%LPD*%
%AMOC8*
5,1,8,0,0,1.08239X$1,22.5*
%
%ADD10C,0.00000*%
D10*
X0033632Y0001800D02*
X0033632Y0198650D01*
X0230483Y0198650D01*
X0230483Y0001800D01*
X0033632Y0001800D01*
X0047333Y0021800D02*
X0047335Y0021958D01*
X0047341Y0022116D01*
X0047351Y0022274D01*
X0047365Y0022432D01*
X0047383Y0022589D01*
X0047404Y0022746D01*
X0047430Y0022902D01*
X0047460Y0023058D01*
X0047493Y0023213D01*
X0047531Y0023366D01*
X0047572Y0023519D01*
X0047617Y0023671D01*
X0047666Y0023822D01*
X0047719Y0023971D01*
X0047775Y0024119D01*
X0047835Y0024265D01*
X0047899Y0024410D01*
X0047967Y0024553D01*
X0048038Y0024695D01*
X0048112Y0024835D01*
X0048190Y0024972D01*
X0048272Y0025108D01*
X0048356Y0025242D01*
X0048445Y0025373D01*
X0048536Y0025502D01*
X0048631Y0025629D01*
X0048728Y0025754D01*
X0048829Y0025876D01*
X0048933Y0025995D01*
X0049040Y0026112D01*
X0049150Y0026226D01*
X0049263Y0026337D01*
X0049378Y0026446D01*
X0049496Y0026551D01*
X0049617Y0026653D01*
X0049740Y0026753D01*
X0049866Y0026849D01*
X0049994Y0026942D01*
X0050124Y0027032D01*
X0050257Y0027118D01*
X0050392Y0027202D01*
X0050528Y0027281D01*
X0050667Y0027358D01*
X0050808Y0027430D01*
X0050950Y0027500D01*
X0051094Y0027565D01*
X0051240Y0027627D01*
X0051387Y0027685D01*
X0051536Y0027740D01*
X0051686Y0027791D01*
X0051837Y0027838D01*
X0051989Y0027881D01*
X0052142Y0027920D01*
X0052297Y0027956D01*
X0052452Y0027987D01*
X0052608Y0028015D01*
X0052764Y0028039D01*
X0052921Y0028059D01*
X0053079Y0028075D01*
X0053236Y0028087D01*
X0053395Y0028095D01*
X0053553Y0028099D01*
X0053711Y0028099D01*
X0053869Y0028095D01*
X0054028Y0028087D01*
X0054185Y0028075D01*
X0054343Y0028059D01*
X0054500Y0028039D01*
X0054656Y0028015D01*
X0054812Y0027987D01*
X0054967Y0027956D01*
X0055122Y0027920D01*
X0055275Y0027881D01*
X0055427Y0027838D01*
X0055578Y0027791D01*
X0055728Y0027740D01*
X0055877Y0027685D01*
X0056024Y0027627D01*
X0056170Y0027565D01*
X0056314Y0027500D01*
X0056456Y0027430D01*
X0056597Y0027358D01*
X0056736Y0027281D01*
X0056872Y0027202D01*
X0057007Y0027118D01*
X0057140Y0027032D01*
X0057270Y0026942D01*
X0057398Y0026849D01*
X0057524Y0026753D01*
X0057647Y0026653D01*
X0057768Y0026551D01*
X0057886Y0026446D01*
X0058001Y0026337D01*
X0058114Y0026226D01*
X0058224Y0026112D01*
X0058331Y0025995D01*
X0058435Y0025876D01*
X0058536Y0025754D01*
X0058633Y0025629D01*
X0058728Y0025502D01*
X0058819Y0025373D01*
X0058908Y0025242D01*
X0058992Y0025108D01*
X0059074Y0024972D01*
X0059152Y0024835D01*
X0059226Y0024695D01*
X0059297Y0024553D01*
X0059365Y0024410D01*
X0059429Y0024265D01*
X0059489Y0024119D01*
X0059545Y0023971D01*
X0059598Y0023822D01*
X0059647Y0023671D01*
X0059692Y0023519D01*
X0059733Y0023366D01*
X0059771Y0023213D01*
X0059804Y0023058D01*
X0059834Y0022902D01*
X0059860Y0022746D01*
X0059881Y0022589D01*
X0059899Y0022432D01*
X0059913Y0022274D01*
X0059923Y0022116D01*
X0059929Y0021958D01*
X0059931Y0021800D01*
X0059929Y0021642D01*
X0059923Y0021484D01*
X0059913Y0021326D01*
X0059899Y0021168D01*
X0059881Y0021011D01*
X0059860Y0020854D01*
X0059834Y0020698D01*
X0059804Y0020542D01*
X0059771Y0020387D01*
X0059733Y0020234D01*
X0059692Y0020081D01*
X0059647Y0019929D01*
X0059598Y0019778D01*
X0059545Y0019629D01*
X0059489Y0019481D01*
X0059429Y0019335D01*
X0059365Y0019190D01*
X0059297Y0019047D01*
X0059226Y0018905D01*
X0059152Y0018765D01*
X0059074Y0018628D01*
X0058992Y0018492D01*
X0058908Y0018358D01*
X0058819Y0018227D01*
X0058728Y0018098D01*
X0058633Y0017971D01*
X0058536Y0017846D01*
X0058435Y0017724D01*
X0058331Y0017605D01*
X0058224Y0017488D01*
X0058114Y0017374D01*
X0058001Y0017263D01*
X0057886Y0017154D01*
X0057768Y0017049D01*
X0057647Y0016947D01*
X0057524Y0016847D01*
X0057398Y0016751D01*
X0057270Y0016658D01*
X0057140Y0016568D01*
X0057007Y0016482D01*
X0056872Y0016398D01*
X0056736Y0016319D01*
X0056597Y0016242D01*
X0056456Y0016170D01*
X0056314Y0016100D01*
X0056170Y0016035D01*
X0056024Y0015973D01*
X0055877Y0015915D01*
X0055728Y0015860D01*
X0055578Y0015809D01*
X0055427Y0015762D01*
X0055275Y0015719D01*
X0055122Y0015680D01*
X0054967Y0015644D01*
X0054812Y0015613D01*
X0054656Y0015585D01*
X0054500Y0015561D01*
X0054343Y0015541D01*
X0054185Y0015525D01*
X0054028Y0015513D01*
X0053869Y0015505D01*
X0053711Y0015501D01*
X0053553Y0015501D01*
X0053395Y0015505D01*
X0053236Y0015513D01*
X0053079Y0015525D01*
X0052921Y0015541D01*
X0052764Y0015561D01*
X0052608Y0015585D01*
X0052452Y0015613D01*
X0052297Y0015644D01*
X0052142Y0015680D01*
X0051989Y0015719D01*
X0051837Y0015762D01*
X0051686Y0015809D01*
X0051536Y0015860D01*
X0051387Y0015915D01*
X0051240Y0015973D01*
X0051094Y0016035D01*
X0050950Y0016100D01*
X0050808Y0016170D01*
X0050667Y0016242D01*
X0050528Y0016319D01*
X0050392Y0016398D01*
X0050257Y0016482D01*
X0050124Y0016568D01*
X0049994Y0016658D01*
X0049866Y0016751D01*
X0049740Y0016847D01*
X0049617Y0016947D01*
X0049496Y0017049D01*
X0049378Y0017154D01*
X0049263Y0017263D01*
X0049150Y0017374D01*
X0049040Y0017488D01*
X0048933Y0017605D01*
X0048829Y0017724D01*
X0048728Y0017846D01*
X0048631Y0017971D01*
X0048536Y0018098D01*
X0048445Y0018227D01*
X0048356Y0018358D01*
X0048272Y0018492D01*
X0048190Y0018628D01*
X0048112Y0018765D01*
X0048038Y0018905D01*
X0047967Y0019047D01*
X0047899Y0019190D01*
X0047835Y0019335D01*
X0047775Y0019481D01*
X0047719Y0019629D01*
X0047666Y0019778D01*
X0047617Y0019929D01*
X0047572Y0020081D01*
X0047531Y0020234D01*
X0047493Y0020387D01*
X0047460Y0020542D01*
X0047430Y0020698D01*
X0047404Y0020854D01*
X0047383Y0021011D01*
X0047365Y0021168D01*
X0047351Y0021326D01*
X0047341Y0021484D01*
X0047335Y0021642D01*
X0047333Y0021800D01*
X0207333Y0021800D02*
X0207335Y0021958D01*
X0207341Y0022116D01*
X0207351Y0022274D01*
X0207365Y0022432D01*
X0207383Y0022589D01*
X0207404Y0022746D01*
X0207430Y0022902D01*
X0207460Y0023058D01*
X0207493Y0023213D01*
X0207531Y0023366D01*
X0207572Y0023519D01*
X0207617Y0023671D01*
X0207666Y0023822D01*
X0207719Y0023971D01*
X0207775Y0024119D01*
X0207835Y0024265D01*
X0207899Y0024410D01*
X0207967Y0024553D01*
X0208038Y0024695D01*
X0208112Y0024835D01*
X0208190Y0024972D01*
X0208272Y0025108D01*
X0208356Y0025242D01*
X0208445Y0025373D01*
X0208536Y0025502D01*
X0208631Y0025629D01*
X0208728Y0025754D01*
X0208829Y0025876D01*
X0208933Y0025995D01*
X0209040Y0026112D01*
X0209150Y0026226D01*
X0209263Y0026337D01*
X0209378Y0026446D01*
X0209496Y0026551D01*
X0209617Y0026653D01*
X0209740Y0026753D01*
X0209866Y0026849D01*
X0209994Y0026942D01*
X0210124Y0027032D01*
X0210257Y0027118D01*
X0210392Y0027202D01*
X0210528Y0027281D01*
X0210667Y0027358D01*
X0210808Y0027430D01*
X0210950Y0027500D01*
X0211094Y0027565D01*
X0211240Y0027627D01*
X0211387Y0027685D01*
X0211536Y0027740D01*
X0211686Y0027791D01*
X0211837Y0027838D01*
X0211989Y0027881D01*
X0212142Y0027920D01*
X0212297Y0027956D01*
X0212452Y0027987D01*
X0212608Y0028015D01*
X0212764Y0028039D01*
X0212921Y0028059D01*
X0213079Y0028075D01*
X0213236Y0028087D01*
X0213395Y0028095D01*
X0213553Y0028099D01*
X0213711Y0028099D01*
X0213869Y0028095D01*
X0214028Y0028087D01*
X0214185Y0028075D01*
X0214343Y0028059D01*
X0214500Y0028039D01*
X0214656Y0028015D01*
X0214812Y0027987D01*
X0214967Y0027956D01*
X0215122Y0027920D01*
X0215275Y0027881D01*
X0215427Y0027838D01*
X0215578Y0027791D01*
X0215728Y0027740D01*
X0215877Y0027685D01*
X0216024Y0027627D01*
X0216170Y0027565D01*
X0216314Y0027500D01*
X0216456Y0027430D01*
X0216597Y0027358D01*
X0216736Y0027281D01*
X0216872Y0027202D01*
X0217007Y0027118D01*
X0217140Y0027032D01*
X0217270Y0026942D01*
X0217398Y0026849D01*
X0217524Y0026753D01*
X0217647Y0026653D01*
X0217768Y0026551D01*
X0217886Y0026446D01*
X0218001Y0026337D01*
X0218114Y0026226D01*
X0218224Y0026112D01*
X0218331Y0025995D01*
X0218435Y0025876D01*
X0218536Y0025754D01*
X0218633Y0025629D01*
X0218728Y0025502D01*
X0218819Y0025373D01*
X0218908Y0025242D01*
X0218992Y0025108D01*
X0219074Y0024972D01*
X0219152Y0024835D01*
X0219226Y0024695D01*
X0219297Y0024553D01*
X0219365Y0024410D01*
X0219429Y0024265D01*
X0219489Y0024119D01*
X0219545Y0023971D01*
X0219598Y0023822D01*
X0219647Y0023671D01*
X0219692Y0023519D01*
X0219733Y0023366D01*
X0219771Y0023213D01*
X0219804Y0023058D01*
X0219834Y0022902D01*
X0219860Y0022746D01*
X0219881Y0022589D01*
X0219899Y0022432D01*
X0219913Y0022274D01*
X0219923Y0022116D01*
X0219929Y0021958D01*
X0219931Y0021800D01*
X0219929Y0021642D01*
X0219923Y0021484D01*
X0219913Y0021326D01*
X0219899Y0021168D01*
X0219881Y0021011D01*
X0219860Y0020854D01*
X0219834Y0020698D01*
X0219804Y0020542D01*
X0219771Y0020387D01*
X0219733Y0020234D01*
X0219692Y0020081D01*
X0219647Y0019929D01*
X0219598Y0019778D01*
X0219545Y0019629D01*
X0219489Y0019481D01*
X0219429Y0019335D01*
X0219365Y0019190D01*
X0219297Y0019047D01*
X0219226Y0018905D01*
X0219152Y0018765D01*
X0219074Y0018628D01*
X0218992Y0018492D01*
X0218908Y0018358D01*
X0218819Y0018227D01*
X0218728Y0018098D01*
X0218633Y0017971D01*
X0218536Y0017846D01*
X0218435Y0017724D01*
X0218331Y0017605D01*
X0218224Y0017488D01*
X0218114Y0017374D01*
X0218001Y0017263D01*
X0217886Y0017154D01*
X0217768Y0017049D01*
X0217647Y0016947D01*
X0217524Y0016847D01*
X0217398Y0016751D01*
X0217270Y0016658D01*
X0217140Y0016568D01*
X0217007Y0016482D01*
X0216872Y0016398D01*
X0216736Y0016319D01*
X0216597Y0016242D01*
X0216456Y0016170D01*
X0216314Y0016100D01*
X0216170Y0016035D01*
X0216024Y0015973D01*
X0215877Y0015915D01*
X0215728Y0015860D01*
X0215578Y0015809D01*
X0215427Y0015762D01*
X0215275Y0015719D01*
X0215122Y0015680D01*
X0214967Y0015644D01*
X0214812Y0015613D01*
X0214656Y0015585D01*
X0214500Y0015561D01*
X0214343Y0015541D01*
X0214185Y0015525D01*
X0214028Y0015513D01*
X0213869Y0015505D01*
X0213711Y0015501D01*
X0213553Y0015501D01*
X0213395Y0015505D01*
X0213236Y0015513D01*
X0213079Y0015525D01*
X0212921Y0015541D01*
X0212764Y0015561D01*
X0212608Y0015585D01*
X0212452Y0015613D01*
X0212297Y0015644D01*
X0212142Y0015680D01*
X0211989Y0015719D01*
X0211837Y0015762D01*
X0211686Y0015809D01*
X0211536Y0015860D01*
X0211387Y0015915D01*
X0211240Y0015973D01*
X0211094Y0016035D01*
X0210950Y0016100D01*
X0210808Y0016170D01*
X0210667Y0016242D01*
X0210528Y0016319D01*
X0210392Y0016398D01*
X0210257Y0016482D01*
X0210124Y0016568D01*
X0209994Y0016658D01*
X0209866Y0016751D01*
X0209740Y0016847D01*
X0209617Y0016947D01*
X0209496Y0017049D01*
X0209378Y0017154D01*
X0209263Y0017263D01*
X0209150Y0017374D01*
X0209040Y0017488D01*
X0208933Y0017605D01*
X0208829Y0017724D01*
X0208728Y0017846D01*
X0208631Y0017971D01*
X0208536Y0018098D01*
X0208445Y0018227D01*
X0208356Y0018358D01*
X0208272Y0018492D01*
X0208190Y0018628D01*
X0208112Y0018765D01*
X0208038Y0018905D01*
X0207967Y0019047D01*
X0207899Y0019190D01*
X0207835Y0019335D01*
X0207775Y0019481D01*
X0207719Y0019629D01*
X0207666Y0019778D01*
X0207617Y0019929D01*
X0207572Y0020081D01*
X0207531Y0020234D01*
X0207493Y0020387D01*
X0207460Y0020542D01*
X0207430Y0020698D01*
X0207404Y0020854D01*
X0207383Y0021011D01*
X0207365Y0021168D01*
X0207351Y0021326D01*
X0207341Y0021484D01*
X0207335Y0021642D01*
X0207333Y0021800D01*
X0047333Y0181800D02*
X0047335Y0181958D01*
X0047341Y0182116D01*
X0047351Y0182274D01*
X0047365Y0182432D01*
X0047383Y0182589D01*
X0047404Y0182746D01*
X0047430Y0182902D01*
X0047460Y0183058D01*
X0047493Y0183213D01*
X0047531Y0183366D01*
X0047572Y0183519D01*
X0047617Y0183671D01*
X0047666Y0183822D01*
X0047719Y0183971D01*
X0047775Y0184119D01*
X0047835Y0184265D01*
X0047899Y0184410D01*
X0047967Y0184553D01*
X0048038Y0184695D01*
X0048112Y0184835D01*
X0048190Y0184972D01*
X0048272Y0185108D01*
X0048356Y0185242D01*
X0048445Y0185373D01*
X0048536Y0185502D01*
X0048631Y0185629D01*
X0048728Y0185754D01*
X0048829Y0185876D01*
X0048933Y0185995D01*
X0049040Y0186112D01*
X0049150Y0186226D01*
X0049263Y0186337D01*
X0049378Y0186446D01*
X0049496Y0186551D01*
X0049617Y0186653D01*
X0049740Y0186753D01*
X0049866Y0186849D01*
X0049994Y0186942D01*
X0050124Y0187032D01*
X0050257Y0187118D01*
X0050392Y0187202D01*
X0050528Y0187281D01*
X0050667Y0187358D01*
X0050808Y0187430D01*
X0050950Y0187500D01*
X0051094Y0187565D01*
X0051240Y0187627D01*
X0051387Y0187685D01*
X0051536Y0187740D01*
X0051686Y0187791D01*
X0051837Y0187838D01*
X0051989Y0187881D01*
X0052142Y0187920D01*
X0052297Y0187956D01*
X0052452Y0187987D01*
X0052608Y0188015D01*
X0052764Y0188039D01*
X0052921Y0188059D01*
X0053079Y0188075D01*
X0053236Y0188087D01*
X0053395Y0188095D01*
X0053553Y0188099D01*
X0053711Y0188099D01*
X0053869Y0188095D01*
X0054028Y0188087D01*
X0054185Y0188075D01*
X0054343Y0188059D01*
X0054500Y0188039D01*
X0054656Y0188015D01*
X0054812Y0187987D01*
X0054967Y0187956D01*
X0055122Y0187920D01*
X0055275Y0187881D01*
X0055427Y0187838D01*
X0055578Y0187791D01*
X0055728Y0187740D01*
X0055877Y0187685D01*
X0056024Y0187627D01*
X0056170Y0187565D01*
X0056314Y0187500D01*
X0056456Y0187430D01*
X0056597Y0187358D01*
X0056736Y0187281D01*
X0056872Y0187202D01*
X0057007Y0187118D01*
X0057140Y0187032D01*
X0057270Y0186942D01*
X0057398Y0186849D01*
X0057524Y0186753D01*
X0057647Y0186653D01*
X0057768Y0186551D01*
X0057886Y0186446D01*
X0058001Y0186337D01*
X0058114Y0186226D01*
X0058224Y0186112D01*
X0058331Y0185995D01*
X0058435Y0185876D01*
X0058536Y0185754D01*
X0058633Y0185629D01*
X0058728Y0185502D01*
X0058819Y0185373D01*
X0058908Y0185242D01*
X0058992Y0185108D01*
X0059074Y0184972D01*
X0059152Y0184835D01*
X0059226Y0184695D01*
X0059297Y0184553D01*
X0059365Y0184410D01*
X0059429Y0184265D01*
X0059489Y0184119D01*
X0059545Y0183971D01*
X0059598Y0183822D01*
X0059647Y0183671D01*
X0059692Y0183519D01*
X0059733Y0183366D01*
X0059771Y0183213D01*
X0059804Y0183058D01*
X0059834Y0182902D01*
X0059860Y0182746D01*
X0059881Y0182589D01*
X0059899Y0182432D01*
X0059913Y0182274D01*
X0059923Y0182116D01*
X0059929Y0181958D01*
X0059931Y0181800D01*
X0059929Y0181642D01*
X0059923Y0181484D01*
X0059913Y0181326D01*
X0059899Y0181168D01*
X0059881Y0181011D01*
X0059860Y0180854D01*
X0059834Y0180698D01*
X0059804Y0180542D01*
X0059771Y0180387D01*
X0059733Y0180234D01*
X0059692Y0180081D01*
X0059647Y0179929D01*
X0059598Y0179778D01*
X0059545Y0179629D01*
X0059489Y0179481D01*
X0059429Y0179335D01*
X0059365Y0179190D01*
X0059297Y0179047D01*
X0059226Y0178905D01*
X0059152Y0178765D01*
X0059074Y0178628D01*
X0058992Y0178492D01*
X0058908Y0178358D01*
X0058819Y0178227D01*
X0058728Y0178098D01*
X0058633Y0177971D01*
X0058536Y0177846D01*
X0058435Y0177724D01*
X0058331Y0177605D01*
X0058224Y0177488D01*
X0058114Y0177374D01*
X0058001Y0177263D01*
X0057886Y0177154D01*
X0057768Y0177049D01*
X0057647Y0176947D01*
X0057524Y0176847D01*
X0057398Y0176751D01*
X0057270Y0176658D01*
X0057140Y0176568D01*
X0057007Y0176482D01*
X0056872Y0176398D01*
X0056736Y0176319D01*
X0056597Y0176242D01*
X0056456Y0176170D01*
X0056314Y0176100D01*
X0056170Y0176035D01*
X0056024Y0175973D01*
X0055877Y0175915D01*
X0055728Y0175860D01*
X0055578Y0175809D01*
X0055427Y0175762D01*
X0055275Y0175719D01*
X0055122Y0175680D01*
X0054967Y0175644D01*
X0054812Y0175613D01*
X0054656Y0175585D01*
X0054500Y0175561D01*
X0054343Y0175541D01*
X0054185Y0175525D01*
X0054028Y0175513D01*
X0053869Y0175505D01*
X0053711Y0175501D01*
X0053553Y0175501D01*
X0053395Y0175505D01*
X0053236Y0175513D01*
X0053079Y0175525D01*
X0052921Y0175541D01*
X0052764Y0175561D01*
X0052608Y0175585D01*
X0052452Y0175613D01*
X0052297Y0175644D01*
X0052142Y0175680D01*
X0051989Y0175719D01*
X0051837Y0175762D01*
X0051686Y0175809D01*
X0051536Y0175860D01*
X0051387Y0175915D01*
X0051240Y0175973D01*
X0051094Y0176035D01*
X0050950Y0176100D01*
X0050808Y0176170D01*
X0050667Y0176242D01*
X0050528Y0176319D01*
X0050392Y0176398D01*
X0050257Y0176482D01*
X0050124Y0176568D01*
X0049994Y0176658D01*
X0049866Y0176751D01*
X0049740Y0176847D01*
X0049617Y0176947D01*
X0049496Y0177049D01*
X0049378Y0177154D01*
X0049263Y0177263D01*
X0049150Y0177374D01*
X0049040Y0177488D01*
X0048933Y0177605D01*
X0048829Y0177724D01*
X0048728Y0177846D01*
X0048631Y0177971D01*
X0048536Y0178098D01*
X0048445Y0178227D01*
X0048356Y0178358D01*
X0048272Y0178492D01*
X0048190Y0178628D01*
X0048112Y0178765D01*
X0048038Y0178905D01*
X0047967Y0179047D01*
X0047899Y0179190D01*
X0047835Y0179335D01*
X0047775Y0179481D01*
X0047719Y0179629D01*
X0047666Y0179778D01*
X0047617Y0179929D01*
X0047572Y0180081D01*
X0047531Y0180234D01*
X0047493Y0180387D01*
X0047460Y0180542D01*
X0047430Y0180698D01*
X0047404Y0180854D01*
X0047383Y0181011D01*
X0047365Y0181168D01*
X0047351Y0181326D01*
X0047341Y0181484D01*
X0047335Y0181642D01*
X0047333Y0181800D01*
M02*
