G75*
%MOIN*%
%OFA0B0*%
%FSLAX25Y25*%
%IPPOS*%
%LPD*%
%AMOC8*
5,1,8,0,0,1.08239X$1,22.5*
%
%ADD10C,0.00000*%
%ADD11C,0.00700*%
%ADD12C,0.01000*%
%ADD13C,0.00800*%
%ADD14C,0.00300*%
%ADD15C,0.00500*%
%ADD16R,0.03000X0.42000*%
%ADD17R,0.02000X0.07500*%
%ADD18R,0.02000X0.03000*%
%ADD19R,0.02000X0.07000*%
%ADD20C,0.00400*%
%ADD21C,0.05000*%
%ADD22C,0.03200*%
D10*
X0033632Y0001800D02*
X0033632Y0198650D01*
X0230483Y0198650D01*
X0230483Y0001800D01*
X0033632Y0001800D01*
X0047333Y0021800D02*
X0047335Y0021958D01*
X0047341Y0022116D01*
X0047351Y0022274D01*
X0047365Y0022432D01*
X0047383Y0022589D01*
X0047404Y0022746D01*
X0047430Y0022902D01*
X0047460Y0023058D01*
X0047493Y0023213D01*
X0047531Y0023366D01*
X0047572Y0023519D01*
X0047617Y0023671D01*
X0047666Y0023822D01*
X0047719Y0023971D01*
X0047775Y0024119D01*
X0047835Y0024265D01*
X0047899Y0024410D01*
X0047967Y0024553D01*
X0048038Y0024695D01*
X0048112Y0024835D01*
X0048190Y0024972D01*
X0048272Y0025108D01*
X0048356Y0025242D01*
X0048445Y0025373D01*
X0048536Y0025502D01*
X0048631Y0025629D01*
X0048728Y0025754D01*
X0048829Y0025876D01*
X0048933Y0025995D01*
X0049040Y0026112D01*
X0049150Y0026226D01*
X0049263Y0026337D01*
X0049378Y0026446D01*
X0049496Y0026551D01*
X0049617Y0026653D01*
X0049740Y0026753D01*
X0049866Y0026849D01*
X0049994Y0026942D01*
X0050124Y0027032D01*
X0050257Y0027118D01*
X0050392Y0027202D01*
X0050528Y0027281D01*
X0050667Y0027358D01*
X0050808Y0027430D01*
X0050950Y0027500D01*
X0051094Y0027565D01*
X0051240Y0027627D01*
X0051387Y0027685D01*
X0051536Y0027740D01*
X0051686Y0027791D01*
X0051837Y0027838D01*
X0051989Y0027881D01*
X0052142Y0027920D01*
X0052297Y0027956D01*
X0052452Y0027987D01*
X0052608Y0028015D01*
X0052764Y0028039D01*
X0052921Y0028059D01*
X0053079Y0028075D01*
X0053236Y0028087D01*
X0053395Y0028095D01*
X0053553Y0028099D01*
X0053711Y0028099D01*
X0053869Y0028095D01*
X0054028Y0028087D01*
X0054185Y0028075D01*
X0054343Y0028059D01*
X0054500Y0028039D01*
X0054656Y0028015D01*
X0054812Y0027987D01*
X0054967Y0027956D01*
X0055122Y0027920D01*
X0055275Y0027881D01*
X0055427Y0027838D01*
X0055578Y0027791D01*
X0055728Y0027740D01*
X0055877Y0027685D01*
X0056024Y0027627D01*
X0056170Y0027565D01*
X0056314Y0027500D01*
X0056456Y0027430D01*
X0056597Y0027358D01*
X0056736Y0027281D01*
X0056872Y0027202D01*
X0057007Y0027118D01*
X0057140Y0027032D01*
X0057270Y0026942D01*
X0057398Y0026849D01*
X0057524Y0026753D01*
X0057647Y0026653D01*
X0057768Y0026551D01*
X0057886Y0026446D01*
X0058001Y0026337D01*
X0058114Y0026226D01*
X0058224Y0026112D01*
X0058331Y0025995D01*
X0058435Y0025876D01*
X0058536Y0025754D01*
X0058633Y0025629D01*
X0058728Y0025502D01*
X0058819Y0025373D01*
X0058908Y0025242D01*
X0058992Y0025108D01*
X0059074Y0024972D01*
X0059152Y0024835D01*
X0059226Y0024695D01*
X0059297Y0024553D01*
X0059365Y0024410D01*
X0059429Y0024265D01*
X0059489Y0024119D01*
X0059545Y0023971D01*
X0059598Y0023822D01*
X0059647Y0023671D01*
X0059692Y0023519D01*
X0059733Y0023366D01*
X0059771Y0023213D01*
X0059804Y0023058D01*
X0059834Y0022902D01*
X0059860Y0022746D01*
X0059881Y0022589D01*
X0059899Y0022432D01*
X0059913Y0022274D01*
X0059923Y0022116D01*
X0059929Y0021958D01*
X0059931Y0021800D01*
X0059929Y0021642D01*
X0059923Y0021484D01*
X0059913Y0021326D01*
X0059899Y0021168D01*
X0059881Y0021011D01*
X0059860Y0020854D01*
X0059834Y0020698D01*
X0059804Y0020542D01*
X0059771Y0020387D01*
X0059733Y0020234D01*
X0059692Y0020081D01*
X0059647Y0019929D01*
X0059598Y0019778D01*
X0059545Y0019629D01*
X0059489Y0019481D01*
X0059429Y0019335D01*
X0059365Y0019190D01*
X0059297Y0019047D01*
X0059226Y0018905D01*
X0059152Y0018765D01*
X0059074Y0018628D01*
X0058992Y0018492D01*
X0058908Y0018358D01*
X0058819Y0018227D01*
X0058728Y0018098D01*
X0058633Y0017971D01*
X0058536Y0017846D01*
X0058435Y0017724D01*
X0058331Y0017605D01*
X0058224Y0017488D01*
X0058114Y0017374D01*
X0058001Y0017263D01*
X0057886Y0017154D01*
X0057768Y0017049D01*
X0057647Y0016947D01*
X0057524Y0016847D01*
X0057398Y0016751D01*
X0057270Y0016658D01*
X0057140Y0016568D01*
X0057007Y0016482D01*
X0056872Y0016398D01*
X0056736Y0016319D01*
X0056597Y0016242D01*
X0056456Y0016170D01*
X0056314Y0016100D01*
X0056170Y0016035D01*
X0056024Y0015973D01*
X0055877Y0015915D01*
X0055728Y0015860D01*
X0055578Y0015809D01*
X0055427Y0015762D01*
X0055275Y0015719D01*
X0055122Y0015680D01*
X0054967Y0015644D01*
X0054812Y0015613D01*
X0054656Y0015585D01*
X0054500Y0015561D01*
X0054343Y0015541D01*
X0054185Y0015525D01*
X0054028Y0015513D01*
X0053869Y0015505D01*
X0053711Y0015501D01*
X0053553Y0015501D01*
X0053395Y0015505D01*
X0053236Y0015513D01*
X0053079Y0015525D01*
X0052921Y0015541D01*
X0052764Y0015561D01*
X0052608Y0015585D01*
X0052452Y0015613D01*
X0052297Y0015644D01*
X0052142Y0015680D01*
X0051989Y0015719D01*
X0051837Y0015762D01*
X0051686Y0015809D01*
X0051536Y0015860D01*
X0051387Y0015915D01*
X0051240Y0015973D01*
X0051094Y0016035D01*
X0050950Y0016100D01*
X0050808Y0016170D01*
X0050667Y0016242D01*
X0050528Y0016319D01*
X0050392Y0016398D01*
X0050257Y0016482D01*
X0050124Y0016568D01*
X0049994Y0016658D01*
X0049866Y0016751D01*
X0049740Y0016847D01*
X0049617Y0016947D01*
X0049496Y0017049D01*
X0049378Y0017154D01*
X0049263Y0017263D01*
X0049150Y0017374D01*
X0049040Y0017488D01*
X0048933Y0017605D01*
X0048829Y0017724D01*
X0048728Y0017846D01*
X0048631Y0017971D01*
X0048536Y0018098D01*
X0048445Y0018227D01*
X0048356Y0018358D01*
X0048272Y0018492D01*
X0048190Y0018628D01*
X0048112Y0018765D01*
X0048038Y0018905D01*
X0047967Y0019047D01*
X0047899Y0019190D01*
X0047835Y0019335D01*
X0047775Y0019481D01*
X0047719Y0019629D01*
X0047666Y0019778D01*
X0047617Y0019929D01*
X0047572Y0020081D01*
X0047531Y0020234D01*
X0047493Y0020387D01*
X0047460Y0020542D01*
X0047430Y0020698D01*
X0047404Y0020854D01*
X0047383Y0021011D01*
X0047365Y0021168D01*
X0047351Y0021326D01*
X0047341Y0021484D01*
X0047335Y0021642D01*
X0047333Y0021800D01*
X0207333Y0021800D02*
X0207335Y0021958D01*
X0207341Y0022116D01*
X0207351Y0022274D01*
X0207365Y0022432D01*
X0207383Y0022589D01*
X0207404Y0022746D01*
X0207430Y0022902D01*
X0207460Y0023058D01*
X0207493Y0023213D01*
X0207531Y0023366D01*
X0207572Y0023519D01*
X0207617Y0023671D01*
X0207666Y0023822D01*
X0207719Y0023971D01*
X0207775Y0024119D01*
X0207835Y0024265D01*
X0207899Y0024410D01*
X0207967Y0024553D01*
X0208038Y0024695D01*
X0208112Y0024835D01*
X0208190Y0024972D01*
X0208272Y0025108D01*
X0208356Y0025242D01*
X0208445Y0025373D01*
X0208536Y0025502D01*
X0208631Y0025629D01*
X0208728Y0025754D01*
X0208829Y0025876D01*
X0208933Y0025995D01*
X0209040Y0026112D01*
X0209150Y0026226D01*
X0209263Y0026337D01*
X0209378Y0026446D01*
X0209496Y0026551D01*
X0209617Y0026653D01*
X0209740Y0026753D01*
X0209866Y0026849D01*
X0209994Y0026942D01*
X0210124Y0027032D01*
X0210257Y0027118D01*
X0210392Y0027202D01*
X0210528Y0027281D01*
X0210667Y0027358D01*
X0210808Y0027430D01*
X0210950Y0027500D01*
X0211094Y0027565D01*
X0211240Y0027627D01*
X0211387Y0027685D01*
X0211536Y0027740D01*
X0211686Y0027791D01*
X0211837Y0027838D01*
X0211989Y0027881D01*
X0212142Y0027920D01*
X0212297Y0027956D01*
X0212452Y0027987D01*
X0212608Y0028015D01*
X0212764Y0028039D01*
X0212921Y0028059D01*
X0213079Y0028075D01*
X0213236Y0028087D01*
X0213395Y0028095D01*
X0213553Y0028099D01*
X0213711Y0028099D01*
X0213869Y0028095D01*
X0214028Y0028087D01*
X0214185Y0028075D01*
X0214343Y0028059D01*
X0214500Y0028039D01*
X0214656Y0028015D01*
X0214812Y0027987D01*
X0214967Y0027956D01*
X0215122Y0027920D01*
X0215275Y0027881D01*
X0215427Y0027838D01*
X0215578Y0027791D01*
X0215728Y0027740D01*
X0215877Y0027685D01*
X0216024Y0027627D01*
X0216170Y0027565D01*
X0216314Y0027500D01*
X0216456Y0027430D01*
X0216597Y0027358D01*
X0216736Y0027281D01*
X0216872Y0027202D01*
X0217007Y0027118D01*
X0217140Y0027032D01*
X0217270Y0026942D01*
X0217398Y0026849D01*
X0217524Y0026753D01*
X0217647Y0026653D01*
X0217768Y0026551D01*
X0217886Y0026446D01*
X0218001Y0026337D01*
X0218114Y0026226D01*
X0218224Y0026112D01*
X0218331Y0025995D01*
X0218435Y0025876D01*
X0218536Y0025754D01*
X0218633Y0025629D01*
X0218728Y0025502D01*
X0218819Y0025373D01*
X0218908Y0025242D01*
X0218992Y0025108D01*
X0219074Y0024972D01*
X0219152Y0024835D01*
X0219226Y0024695D01*
X0219297Y0024553D01*
X0219365Y0024410D01*
X0219429Y0024265D01*
X0219489Y0024119D01*
X0219545Y0023971D01*
X0219598Y0023822D01*
X0219647Y0023671D01*
X0219692Y0023519D01*
X0219733Y0023366D01*
X0219771Y0023213D01*
X0219804Y0023058D01*
X0219834Y0022902D01*
X0219860Y0022746D01*
X0219881Y0022589D01*
X0219899Y0022432D01*
X0219913Y0022274D01*
X0219923Y0022116D01*
X0219929Y0021958D01*
X0219931Y0021800D01*
X0219929Y0021642D01*
X0219923Y0021484D01*
X0219913Y0021326D01*
X0219899Y0021168D01*
X0219881Y0021011D01*
X0219860Y0020854D01*
X0219834Y0020698D01*
X0219804Y0020542D01*
X0219771Y0020387D01*
X0219733Y0020234D01*
X0219692Y0020081D01*
X0219647Y0019929D01*
X0219598Y0019778D01*
X0219545Y0019629D01*
X0219489Y0019481D01*
X0219429Y0019335D01*
X0219365Y0019190D01*
X0219297Y0019047D01*
X0219226Y0018905D01*
X0219152Y0018765D01*
X0219074Y0018628D01*
X0218992Y0018492D01*
X0218908Y0018358D01*
X0218819Y0018227D01*
X0218728Y0018098D01*
X0218633Y0017971D01*
X0218536Y0017846D01*
X0218435Y0017724D01*
X0218331Y0017605D01*
X0218224Y0017488D01*
X0218114Y0017374D01*
X0218001Y0017263D01*
X0217886Y0017154D01*
X0217768Y0017049D01*
X0217647Y0016947D01*
X0217524Y0016847D01*
X0217398Y0016751D01*
X0217270Y0016658D01*
X0217140Y0016568D01*
X0217007Y0016482D01*
X0216872Y0016398D01*
X0216736Y0016319D01*
X0216597Y0016242D01*
X0216456Y0016170D01*
X0216314Y0016100D01*
X0216170Y0016035D01*
X0216024Y0015973D01*
X0215877Y0015915D01*
X0215728Y0015860D01*
X0215578Y0015809D01*
X0215427Y0015762D01*
X0215275Y0015719D01*
X0215122Y0015680D01*
X0214967Y0015644D01*
X0214812Y0015613D01*
X0214656Y0015585D01*
X0214500Y0015561D01*
X0214343Y0015541D01*
X0214185Y0015525D01*
X0214028Y0015513D01*
X0213869Y0015505D01*
X0213711Y0015501D01*
X0213553Y0015501D01*
X0213395Y0015505D01*
X0213236Y0015513D01*
X0213079Y0015525D01*
X0212921Y0015541D01*
X0212764Y0015561D01*
X0212608Y0015585D01*
X0212452Y0015613D01*
X0212297Y0015644D01*
X0212142Y0015680D01*
X0211989Y0015719D01*
X0211837Y0015762D01*
X0211686Y0015809D01*
X0211536Y0015860D01*
X0211387Y0015915D01*
X0211240Y0015973D01*
X0211094Y0016035D01*
X0210950Y0016100D01*
X0210808Y0016170D01*
X0210667Y0016242D01*
X0210528Y0016319D01*
X0210392Y0016398D01*
X0210257Y0016482D01*
X0210124Y0016568D01*
X0209994Y0016658D01*
X0209866Y0016751D01*
X0209740Y0016847D01*
X0209617Y0016947D01*
X0209496Y0017049D01*
X0209378Y0017154D01*
X0209263Y0017263D01*
X0209150Y0017374D01*
X0209040Y0017488D01*
X0208933Y0017605D01*
X0208829Y0017724D01*
X0208728Y0017846D01*
X0208631Y0017971D01*
X0208536Y0018098D01*
X0208445Y0018227D01*
X0208356Y0018358D01*
X0208272Y0018492D01*
X0208190Y0018628D01*
X0208112Y0018765D01*
X0208038Y0018905D01*
X0207967Y0019047D01*
X0207899Y0019190D01*
X0207835Y0019335D01*
X0207775Y0019481D01*
X0207719Y0019629D01*
X0207666Y0019778D01*
X0207617Y0019929D01*
X0207572Y0020081D01*
X0207531Y0020234D01*
X0207493Y0020387D01*
X0207460Y0020542D01*
X0207430Y0020698D01*
X0207404Y0020854D01*
X0207383Y0021011D01*
X0207365Y0021168D01*
X0207351Y0021326D01*
X0207341Y0021484D01*
X0207335Y0021642D01*
X0207333Y0021800D01*
X0047333Y0181800D02*
X0047335Y0181958D01*
X0047341Y0182116D01*
X0047351Y0182274D01*
X0047365Y0182432D01*
X0047383Y0182589D01*
X0047404Y0182746D01*
X0047430Y0182902D01*
X0047460Y0183058D01*
X0047493Y0183213D01*
X0047531Y0183366D01*
X0047572Y0183519D01*
X0047617Y0183671D01*
X0047666Y0183822D01*
X0047719Y0183971D01*
X0047775Y0184119D01*
X0047835Y0184265D01*
X0047899Y0184410D01*
X0047967Y0184553D01*
X0048038Y0184695D01*
X0048112Y0184835D01*
X0048190Y0184972D01*
X0048272Y0185108D01*
X0048356Y0185242D01*
X0048445Y0185373D01*
X0048536Y0185502D01*
X0048631Y0185629D01*
X0048728Y0185754D01*
X0048829Y0185876D01*
X0048933Y0185995D01*
X0049040Y0186112D01*
X0049150Y0186226D01*
X0049263Y0186337D01*
X0049378Y0186446D01*
X0049496Y0186551D01*
X0049617Y0186653D01*
X0049740Y0186753D01*
X0049866Y0186849D01*
X0049994Y0186942D01*
X0050124Y0187032D01*
X0050257Y0187118D01*
X0050392Y0187202D01*
X0050528Y0187281D01*
X0050667Y0187358D01*
X0050808Y0187430D01*
X0050950Y0187500D01*
X0051094Y0187565D01*
X0051240Y0187627D01*
X0051387Y0187685D01*
X0051536Y0187740D01*
X0051686Y0187791D01*
X0051837Y0187838D01*
X0051989Y0187881D01*
X0052142Y0187920D01*
X0052297Y0187956D01*
X0052452Y0187987D01*
X0052608Y0188015D01*
X0052764Y0188039D01*
X0052921Y0188059D01*
X0053079Y0188075D01*
X0053236Y0188087D01*
X0053395Y0188095D01*
X0053553Y0188099D01*
X0053711Y0188099D01*
X0053869Y0188095D01*
X0054028Y0188087D01*
X0054185Y0188075D01*
X0054343Y0188059D01*
X0054500Y0188039D01*
X0054656Y0188015D01*
X0054812Y0187987D01*
X0054967Y0187956D01*
X0055122Y0187920D01*
X0055275Y0187881D01*
X0055427Y0187838D01*
X0055578Y0187791D01*
X0055728Y0187740D01*
X0055877Y0187685D01*
X0056024Y0187627D01*
X0056170Y0187565D01*
X0056314Y0187500D01*
X0056456Y0187430D01*
X0056597Y0187358D01*
X0056736Y0187281D01*
X0056872Y0187202D01*
X0057007Y0187118D01*
X0057140Y0187032D01*
X0057270Y0186942D01*
X0057398Y0186849D01*
X0057524Y0186753D01*
X0057647Y0186653D01*
X0057768Y0186551D01*
X0057886Y0186446D01*
X0058001Y0186337D01*
X0058114Y0186226D01*
X0058224Y0186112D01*
X0058331Y0185995D01*
X0058435Y0185876D01*
X0058536Y0185754D01*
X0058633Y0185629D01*
X0058728Y0185502D01*
X0058819Y0185373D01*
X0058908Y0185242D01*
X0058992Y0185108D01*
X0059074Y0184972D01*
X0059152Y0184835D01*
X0059226Y0184695D01*
X0059297Y0184553D01*
X0059365Y0184410D01*
X0059429Y0184265D01*
X0059489Y0184119D01*
X0059545Y0183971D01*
X0059598Y0183822D01*
X0059647Y0183671D01*
X0059692Y0183519D01*
X0059733Y0183366D01*
X0059771Y0183213D01*
X0059804Y0183058D01*
X0059834Y0182902D01*
X0059860Y0182746D01*
X0059881Y0182589D01*
X0059899Y0182432D01*
X0059913Y0182274D01*
X0059923Y0182116D01*
X0059929Y0181958D01*
X0059931Y0181800D01*
X0059929Y0181642D01*
X0059923Y0181484D01*
X0059913Y0181326D01*
X0059899Y0181168D01*
X0059881Y0181011D01*
X0059860Y0180854D01*
X0059834Y0180698D01*
X0059804Y0180542D01*
X0059771Y0180387D01*
X0059733Y0180234D01*
X0059692Y0180081D01*
X0059647Y0179929D01*
X0059598Y0179778D01*
X0059545Y0179629D01*
X0059489Y0179481D01*
X0059429Y0179335D01*
X0059365Y0179190D01*
X0059297Y0179047D01*
X0059226Y0178905D01*
X0059152Y0178765D01*
X0059074Y0178628D01*
X0058992Y0178492D01*
X0058908Y0178358D01*
X0058819Y0178227D01*
X0058728Y0178098D01*
X0058633Y0177971D01*
X0058536Y0177846D01*
X0058435Y0177724D01*
X0058331Y0177605D01*
X0058224Y0177488D01*
X0058114Y0177374D01*
X0058001Y0177263D01*
X0057886Y0177154D01*
X0057768Y0177049D01*
X0057647Y0176947D01*
X0057524Y0176847D01*
X0057398Y0176751D01*
X0057270Y0176658D01*
X0057140Y0176568D01*
X0057007Y0176482D01*
X0056872Y0176398D01*
X0056736Y0176319D01*
X0056597Y0176242D01*
X0056456Y0176170D01*
X0056314Y0176100D01*
X0056170Y0176035D01*
X0056024Y0175973D01*
X0055877Y0175915D01*
X0055728Y0175860D01*
X0055578Y0175809D01*
X0055427Y0175762D01*
X0055275Y0175719D01*
X0055122Y0175680D01*
X0054967Y0175644D01*
X0054812Y0175613D01*
X0054656Y0175585D01*
X0054500Y0175561D01*
X0054343Y0175541D01*
X0054185Y0175525D01*
X0054028Y0175513D01*
X0053869Y0175505D01*
X0053711Y0175501D01*
X0053553Y0175501D01*
X0053395Y0175505D01*
X0053236Y0175513D01*
X0053079Y0175525D01*
X0052921Y0175541D01*
X0052764Y0175561D01*
X0052608Y0175585D01*
X0052452Y0175613D01*
X0052297Y0175644D01*
X0052142Y0175680D01*
X0051989Y0175719D01*
X0051837Y0175762D01*
X0051686Y0175809D01*
X0051536Y0175860D01*
X0051387Y0175915D01*
X0051240Y0175973D01*
X0051094Y0176035D01*
X0050950Y0176100D01*
X0050808Y0176170D01*
X0050667Y0176242D01*
X0050528Y0176319D01*
X0050392Y0176398D01*
X0050257Y0176482D01*
X0050124Y0176568D01*
X0049994Y0176658D01*
X0049866Y0176751D01*
X0049740Y0176847D01*
X0049617Y0176947D01*
X0049496Y0177049D01*
X0049378Y0177154D01*
X0049263Y0177263D01*
X0049150Y0177374D01*
X0049040Y0177488D01*
X0048933Y0177605D01*
X0048829Y0177724D01*
X0048728Y0177846D01*
X0048631Y0177971D01*
X0048536Y0178098D01*
X0048445Y0178227D01*
X0048356Y0178358D01*
X0048272Y0178492D01*
X0048190Y0178628D01*
X0048112Y0178765D01*
X0048038Y0178905D01*
X0047967Y0179047D01*
X0047899Y0179190D01*
X0047835Y0179335D01*
X0047775Y0179481D01*
X0047719Y0179629D01*
X0047666Y0179778D01*
X0047617Y0179929D01*
X0047572Y0180081D01*
X0047531Y0180234D01*
X0047493Y0180387D01*
X0047460Y0180542D01*
X0047430Y0180698D01*
X0047404Y0180854D01*
X0047383Y0181011D01*
X0047365Y0181168D01*
X0047351Y0181326D01*
X0047341Y0181484D01*
X0047335Y0181642D01*
X0047333Y0181800D01*
D11*
X0083982Y0183701D02*
X0085033Y0182650D01*
X0087135Y0182650D01*
X0088186Y0183701D01*
X0088186Y0184752D01*
X0087135Y0185803D01*
X0085033Y0185803D01*
X0083982Y0186854D01*
X0083982Y0187904D01*
X0085033Y0188955D01*
X0087135Y0188955D01*
X0088186Y0187904D01*
X0090428Y0185803D02*
X0091479Y0186854D01*
X0093580Y0186854D01*
X0094631Y0185803D01*
X0094631Y0184752D01*
X0090428Y0184752D01*
X0090428Y0183701D02*
X0090428Y0185803D01*
X0090428Y0183701D02*
X0091479Y0182650D01*
X0093580Y0182650D01*
X0093580Y0178455D02*
X0091479Y0178455D01*
X0090428Y0177404D01*
X0090428Y0173201D01*
X0094631Y0177404D01*
X0094631Y0173201D01*
X0093580Y0172150D01*
X0091479Y0172150D01*
X0090428Y0173201D01*
X0088186Y0172150D02*
X0083982Y0172150D01*
X0088186Y0176354D01*
X0088186Y0177404D01*
X0087135Y0178455D01*
X0085033Y0178455D01*
X0083982Y0177404D01*
X0093580Y0178455D02*
X0094631Y0177404D01*
X0096873Y0177404D02*
X0097924Y0178455D01*
X0100026Y0178455D01*
X0101077Y0177404D01*
X0101077Y0176354D01*
X0096873Y0172150D01*
X0101077Y0172150D01*
X0103319Y0175303D02*
X0107522Y0175303D01*
X0109764Y0177404D02*
X0109764Y0173201D01*
X0113968Y0177404D01*
X0113968Y0173201D01*
X0112917Y0172150D01*
X0110815Y0172150D01*
X0109764Y0173201D01*
X0106471Y0172150D02*
X0106471Y0178455D01*
X0103319Y0175303D01*
X0109764Y0177404D02*
X0110815Y0178455D01*
X0112917Y0178455D01*
X0113968Y0177404D01*
X0116210Y0178455D02*
X0116210Y0175303D01*
X0118312Y0176354D01*
X0119362Y0176354D01*
X0120413Y0175303D01*
X0120413Y0173201D01*
X0119362Y0172150D01*
X0117261Y0172150D01*
X0116210Y0173201D01*
X0122655Y0172150D02*
X0126859Y0176354D01*
X0126859Y0177404D01*
X0125808Y0178455D01*
X0123706Y0178455D01*
X0122655Y0177404D01*
X0120413Y0178455D02*
X0116210Y0178455D01*
X0118265Y0182650D02*
X0118265Y0188955D01*
X0120507Y0185803D02*
X0121558Y0186854D01*
X0123659Y0186854D01*
X0124710Y0185803D01*
X0124710Y0184752D01*
X0120507Y0184752D01*
X0120507Y0183701D02*
X0120507Y0185803D01*
X0120507Y0183701D02*
X0121558Y0182650D01*
X0123659Y0182650D01*
X0126952Y0183701D02*
X0128003Y0182650D01*
X0131156Y0182650D01*
X0131156Y0186854D01*
X0133398Y0186854D02*
X0134449Y0186854D01*
X0135500Y0185803D01*
X0136550Y0186854D01*
X0137601Y0185803D01*
X0137601Y0182650D01*
X0135500Y0182650D02*
X0135500Y0185803D01*
X0133398Y0186854D02*
X0133398Y0182650D01*
X0132253Y0178455D02*
X0133304Y0177404D01*
X0129101Y0173201D01*
X0130152Y0172150D01*
X0132253Y0172150D01*
X0133304Y0173201D01*
X0133304Y0177404D01*
X0132253Y0178455D02*
X0130152Y0178455D01*
X0129101Y0177404D01*
X0129101Y0173201D01*
X0126859Y0172150D02*
X0122655Y0172150D01*
X0118265Y0182650D02*
X0114061Y0188955D01*
X0114061Y0182650D01*
X0105374Y0182650D02*
X0105374Y0185803D01*
X0104323Y0186854D01*
X0102221Y0186854D01*
X0101170Y0185803D01*
X0098975Y0186854D02*
X0096873Y0186854D01*
X0097924Y0187904D02*
X0097924Y0183701D01*
X0098975Y0182650D01*
X0101170Y0182650D02*
X0101170Y0188955D01*
X0126952Y0186854D02*
X0126952Y0183701D01*
X0139843Y0183701D02*
X0140894Y0182650D01*
X0144047Y0182650D01*
X0144047Y0185803D01*
X0142996Y0186854D01*
X0140894Y0186854D01*
X0140894Y0184752D02*
X0144047Y0184752D01*
X0146289Y0182650D02*
X0146289Y0186854D01*
X0149441Y0186854D01*
X0150492Y0185803D01*
X0150492Y0182650D01*
X0152734Y0182650D02*
X0152734Y0186854D01*
X0155887Y0186854D01*
X0156938Y0185803D01*
X0156938Y0182650D01*
X0140894Y0184752D02*
X0139843Y0183701D01*
X0144543Y0031455D02*
X0143492Y0030404D01*
X0143492Y0029354D01*
X0144543Y0028303D01*
X0146645Y0028303D01*
X0147696Y0027252D01*
X0147696Y0026201D01*
X0146645Y0025150D01*
X0144543Y0025150D01*
X0143492Y0026201D01*
X0144543Y0031455D02*
X0146645Y0031455D01*
X0147696Y0030404D01*
X0149938Y0028303D02*
X0149938Y0026201D01*
X0150989Y0025150D01*
X0153091Y0025150D01*
X0154141Y0026201D01*
X0154141Y0028303D01*
X0153091Y0029354D01*
X0150989Y0029354D01*
X0149938Y0028303D01*
X0156383Y0029354D02*
X0156383Y0026201D01*
X0157434Y0025150D01*
X0160587Y0025150D01*
X0160587Y0029354D01*
X0162829Y0029354D02*
X0165982Y0029354D01*
X0167032Y0028303D01*
X0167032Y0025150D01*
X0169274Y0026201D02*
X0169274Y0028303D01*
X0170325Y0029354D01*
X0173478Y0029354D01*
X0173478Y0031455D02*
X0173478Y0025150D01*
X0170325Y0025150D01*
X0169274Y0026201D01*
X0175720Y0026201D02*
X0175720Y0028303D01*
X0176771Y0029354D01*
X0178873Y0029354D01*
X0179923Y0028303D01*
X0179923Y0027252D01*
X0175720Y0027252D01*
X0175720Y0026201D02*
X0176771Y0025150D01*
X0178873Y0025150D01*
X0182165Y0025150D02*
X0182165Y0029354D01*
X0182165Y0027252D02*
X0184267Y0029354D01*
X0185318Y0029354D01*
X0162829Y0029354D02*
X0162829Y0025150D01*
X0154141Y0019904D02*
X0149938Y0015701D01*
X0150989Y0014650D01*
X0153091Y0014650D01*
X0154141Y0015701D01*
X0154141Y0019904D01*
X0153091Y0020955D01*
X0150989Y0020955D01*
X0149938Y0019904D01*
X0149938Y0015701D01*
X0147766Y0015701D02*
X0147766Y0014650D01*
X0146715Y0014650D01*
X0146715Y0015701D01*
X0147766Y0015701D01*
X0144473Y0014650D02*
X0140270Y0014650D01*
X0142371Y0014650D02*
X0142371Y0020955D01*
X0140270Y0018854D01*
X0133754Y0025150D02*
X0130601Y0025150D01*
X0130601Y0031455D01*
X0133754Y0031455D01*
X0134805Y0030404D01*
X0134805Y0029354D01*
X0133754Y0028303D01*
X0130601Y0028303D01*
X0128359Y0030404D02*
X0128359Y0026201D01*
X0127309Y0025150D01*
X0125207Y0025150D01*
X0124156Y0026201D01*
X0124156Y0030404D01*
X0125207Y0031455D01*
X0127309Y0031455D01*
X0128359Y0030404D01*
X0133754Y0028303D02*
X0134805Y0027252D01*
X0134805Y0026201D01*
X0133754Y0025150D01*
X0131582Y0020955D02*
X0131582Y0016752D01*
X0129480Y0014650D01*
X0127379Y0016752D01*
X0127379Y0020955D01*
X0121914Y0025150D02*
X0118761Y0028303D01*
X0117710Y0027252D02*
X0121914Y0031455D01*
X0117710Y0031455D02*
X0117710Y0025150D01*
X0115468Y0027252D02*
X0111265Y0027252D01*
X0111265Y0026201D02*
X0111265Y0028303D01*
X0112316Y0029354D01*
X0114418Y0029354D01*
X0115468Y0028303D01*
X0115468Y0027252D01*
X0114418Y0025150D02*
X0112316Y0025150D01*
X0111265Y0026201D01*
X0109023Y0026201D02*
X0107972Y0027252D01*
X0105870Y0027252D01*
X0104819Y0028303D01*
X0105870Y0029354D01*
X0109023Y0029354D01*
X0109023Y0026201D02*
X0107972Y0025150D01*
X0104819Y0025150D01*
X0102601Y0029354D02*
X0101550Y0029354D01*
X0099448Y0027252D01*
X0099448Y0025150D02*
X0099448Y0029354D01*
X0097206Y0028303D02*
X0097206Y0026201D01*
X0096155Y0025150D01*
X0094054Y0025150D01*
X0093003Y0026201D01*
X0093003Y0028303D01*
X0094054Y0029354D01*
X0096155Y0029354D01*
X0097206Y0028303D01*
X0099425Y0022006D02*
X0099425Y0020955D01*
X0099425Y0018854D02*
X0098374Y0018854D01*
X0099425Y0018854D02*
X0099425Y0014650D01*
X0098374Y0014650D02*
X0100476Y0014650D01*
X0104773Y0014650D02*
X0102671Y0018854D01*
X0106874Y0018854D02*
X0104773Y0014650D01*
X0109116Y0015701D02*
X0109116Y0017803D01*
X0110167Y0018854D01*
X0112269Y0018854D01*
X0113320Y0017803D01*
X0113320Y0016752D01*
X0109116Y0016752D01*
X0109116Y0015701D02*
X0110167Y0014650D01*
X0112269Y0014650D01*
X0115562Y0014650D02*
X0115562Y0018854D01*
X0115562Y0016752D02*
X0117664Y0018854D01*
X0118715Y0018854D01*
X0096155Y0018854D02*
X0095104Y0018854D01*
X0093003Y0016752D01*
X0093003Y0014650D02*
X0093003Y0018854D01*
X0090761Y0019904D02*
X0089710Y0020955D01*
X0086557Y0020955D01*
X0086557Y0014650D01*
X0089710Y0014650D01*
X0090761Y0015701D01*
X0090761Y0019904D01*
X0090761Y0025150D02*
X0090761Y0031455D01*
X0088659Y0029354D01*
X0086557Y0031455D01*
X0086557Y0025150D01*
D12*
X0143632Y0091800D02*
X0143632Y0094300D01*
X0148632Y0094300D01*
X0148632Y0114300D01*
X0138632Y0114300D01*
X0138632Y0094300D01*
X0143632Y0094300D01*
X0138632Y0114300D02*
X0138632Y0119300D01*
X0143632Y0119300D01*
X0143632Y0121800D01*
X0143632Y0119300D02*
X0148632Y0119300D01*
X0148632Y0114300D01*
X0189132Y0111804D02*
X0195137Y0111804D01*
X0192135Y0114806D02*
X0192135Y0108801D01*
X0198340Y0107300D02*
X0204345Y0107300D01*
X0201343Y0107300D02*
X0201343Y0116308D01*
X0198340Y0113305D01*
X0207548Y0114806D02*
X0209049Y0116308D01*
X0212052Y0116308D01*
X0213553Y0114806D01*
X0213553Y0113305D01*
X0207548Y0107300D01*
X0213553Y0107300D01*
X0212052Y0101308D02*
X0207548Y0101308D01*
X0207548Y0092300D01*
X0212052Y0092300D01*
X0213553Y0093801D01*
X0213553Y0099806D01*
X0212052Y0101308D01*
X0216756Y0101308D02*
X0221260Y0101308D01*
X0222761Y0099806D01*
X0222761Y0096804D01*
X0221260Y0095303D01*
X0216756Y0095303D01*
X0216756Y0092300D02*
X0216756Y0101308D01*
X0219758Y0095303D02*
X0222761Y0092300D01*
X0213553Y0084806D02*
X0212052Y0086308D01*
X0209049Y0086308D01*
X0207548Y0084806D01*
X0207548Y0083305D01*
X0209049Y0081804D01*
X0212052Y0081804D01*
X0213553Y0080303D01*
X0213553Y0078801D01*
X0212052Y0077300D01*
X0209049Y0077300D01*
X0207548Y0078801D01*
X0201343Y0077300D02*
X0201343Y0086308D01*
X0204345Y0086308D02*
X0198340Y0086308D01*
X0195137Y0084806D02*
X0195137Y0081804D01*
X0193636Y0080303D01*
X0189132Y0080303D01*
X0192135Y0080303D02*
X0195137Y0077300D01*
X0189132Y0077300D02*
X0189132Y0086308D01*
X0193636Y0086308D01*
X0195137Y0084806D01*
X0193636Y0092300D02*
X0190634Y0092300D01*
X0189132Y0093801D01*
X0190634Y0096804D02*
X0193636Y0096804D01*
X0195137Y0095303D01*
X0195137Y0093801D01*
X0193636Y0092300D01*
X0198340Y0092300D02*
X0198340Y0101308D01*
X0204345Y0092300D01*
X0204345Y0101308D01*
X0195137Y0099806D02*
X0193636Y0101308D01*
X0190634Y0101308D01*
X0189132Y0099806D01*
X0189132Y0098305D01*
X0190634Y0096804D01*
X0190634Y0071308D02*
X0189132Y0069806D01*
X0189132Y0063801D01*
X0190634Y0062300D01*
X0193636Y0062300D01*
X0195137Y0063801D01*
X0195137Y0066804D01*
X0192135Y0066804D01*
X0195137Y0069806D02*
X0193636Y0071308D01*
X0190634Y0071308D01*
X0198340Y0071308D02*
X0204345Y0062300D01*
X0204345Y0071308D01*
X0207548Y0071308D02*
X0212052Y0071308D01*
X0213553Y0069806D01*
X0213553Y0063801D01*
X0212052Y0062300D01*
X0207548Y0062300D01*
X0207548Y0071308D01*
X0198340Y0071308D02*
X0198340Y0062300D01*
X0198340Y0056308D02*
X0204345Y0047300D01*
X0204345Y0056308D01*
X0207548Y0056308D02*
X0212052Y0056308D01*
X0213553Y0054806D01*
X0213553Y0048801D01*
X0212052Y0047300D01*
X0207548Y0047300D01*
X0207548Y0056308D01*
X0198340Y0056308D02*
X0198340Y0047300D01*
X0195137Y0048801D02*
X0195137Y0051804D01*
X0192135Y0051804D01*
X0189132Y0054806D02*
X0189132Y0048801D01*
X0190634Y0047300D01*
X0193636Y0047300D01*
X0195137Y0048801D01*
X0195137Y0054806D02*
X0193636Y0056308D01*
X0190634Y0056308D01*
X0189132Y0054806D01*
X0198340Y0122300D02*
X0204345Y0122300D01*
X0201343Y0122300D02*
X0201343Y0131308D01*
X0198340Y0128305D01*
X0195137Y0126804D02*
X0189132Y0126804D01*
X0192135Y0129806D02*
X0192135Y0123801D01*
X0207548Y0122300D02*
X0213553Y0128305D01*
X0213553Y0129806D01*
X0212052Y0131308D01*
X0209049Y0131308D01*
X0207548Y0129806D01*
X0207548Y0122300D02*
X0213553Y0122300D01*
D13*
X0239577Y0144871D02*
X0239577Y0178729D01*
X0208632Y0178729D01*
X0210443Y0173611D02*
X0210443Y0168362D01*
X0210443Y0164425D02*
X0210443Y0159175D01*
X0210443Y0155238D02*
X0210443Y0149989D01*
X0214651Y0149989D01*
X0218588Y0149989D02*
X0222796Y0149989D01*
X0226733Y0149989D02*
X0230940Y0149989D01*
X0234877Y0149989D02*
X0239085Y0149989D01*
X0239577Y0144871D02*
X0183278Y0144871D01*
X0183278Y0151170D01*
X0182156Y0132095D02*
X0182156Y0045245D01*
X0157746Y0045245D01*
X0157746Y0132095D01*
X0182156Y0132095D01*
X0185306Y0132095D01*
X0185306Y0045245D01*
X0182156Y0045245D01*
X0180384Y0045245D02*
X0180384Y0043670D01*
X0176447Y0043670D01*
X0176447Y0045245D01*
X0139632Y0061800D02*
X0133632Y0061800D01*
X0133632Y0058800D01*
X0113632Y0058800D01*
X0113632Y0061800D01*
X0107632Y0061800D01*
X0113632Y0061800D02*
X0113632Y0064800D01*
X0133632Y0064800D01*
X0133632Y0061800D01*
X0128632Y0044800D02*
X0128632Y0041800D01*
X0129632Y0041800D01*
X0128632Y0041800D02*
X0128632Y0038800D01*
X0108632Y0038800D01*
X0108632Y0041800D01*
X0107632Y0041800D01*
X0108632Y0041800D02*
X0108632Y0044800D01*
X0128632Y0044800D01*
X0111132Y0044300D02*
X0111132Y0039300D01*
X0074656Y0036170D02*
X0074656Y0157430D01*
X0053632Y0157430D01*
X0026231Y0157430D01*
X0026231Y0036170D01*
X0053622Y0036170D01*
X0053632Y0036170D02*
X0074656Y0036170D01*
X0025900Y0062300D02*
X0025898Y0062398D01*
X0025892Y0062496D01*
X0025883Y0062594D01*
X0025869Y0062691D01*
X0025852Y0062788D01*
X0025831Y0062884D01*
X0025806Y0062979D01*
X0025778Y0063073D01*
X0025745Y0063165D01*
X0025710Y0063257D01*
X0025670Y0063347D01*
X0025628Y0063435D01*
X0025581Y0063522D01*
X0025532Y0063606D01*
X0025479Y0063689D01*
X0025423Y0063769D01*
X0025363Y0063848D01*
X0025301Y0063924D01*
X0025236Y0063997D01*
X0025168Y0064068D01*
X0025097Y0064136D01*
X0025024Y0064201D01*
X0024948Y0064263D01*
X0024869Y0064323D01*
X0024789Y0064379D01*
X0024706Y0064432D01*
X0024622Y0064481D01*
X0024535Y0064528D01*
X0024447Y0064570D01*
X0024357Y0064610D01*
X0024265Y0064645D01*
X0024173Y0064678D01*
X0024079Y0064706D01*
X0023984Y0064731D01*
X0023888Y0064752D01*
X0023791Y0064769D01*
X0023694Y0064783D01*
X0023596Y0064792D01*
X0023498Y0064798D01*
X0023400Y0064800D01*
X0003400Y0064800D01*
X0003313Y0064802D01*
X0003226Y0064808D01*
X0003139Y0064817D01*
X0003053Y0064830D01*
X0002967Y0064847D01*
X0002882Y0064868D01*
X0002799Y0064893D01*
X0002716Y0064921D01*
X0002635Y0064952D01*
X0002555Y0064987D01*
X0002477Y0065026D01*
X0002400Y0065068D01*
X0002325Y0065113D01*
X0002253Y0065162D01*
X0002182Y0065213D01*
X0002114Y0065268D01*
X0002049Y0065325D01*
X0001986Y0065386D01*
X0001925Y0065449D01*
X0001868Y0065514D01*
X0001813Y0065582D01*
X0001762Y0065653D01*
X0001713Y0065725D01*
X0001668Y0065800D01*
X0001626Y0065877D01*
X0001587Y0065955D01*
X0001552Y0066035D01*
X0001521Y0066116D01*
X0001493Y0066199D01*
X0001468Y0066282D01*
X0001447Y0066367D01*
X0001430Y0066453D01*
X0001417Y0066539D01*
X0001408Y0066626D01*
X0001402Y0066713D01*
X0001400Y0066800D01*
X0001400Y0126800D01*
X0001402Y0126887D01*
X0001408Y0126974D01*
X0001417Y0127061D01*
X0001430Y0127147D01*
X0001447Y0127233D01*
X0001468Y0127318D01*
X0001493Y0127401D01*
X0001521Y0127484D01*
X0001552Y0127565D01*
X0001587Y0127645D01*
X0001626Y0127723D01*
X0001668Y0127800D01*
X0001713Y0127875D01*
X0001762Y0127947D01*
X0001813Y0128018D01*
X0001868Y0128086D01*
X0001925Y0128151D01*
X0001986Y0128214D01*
X0002049Y0128275D01*
X0002114Y0128332D01*
X0002182Y0128387D01*
X0002253Y0128438D01*
X0002325Y0128487D01*
X0002400Y0128532D01*
X0002477Y0128574D01*
X0002555Y0128613D01*
X0002635Y0128648D01*
X0002716Y0128679D01*
X0002799Y0128707D01*
X0002882Y0128732D01*
X0002967Y0128753D01*
X0003053Y0128770D01*
X0003139Y0128783D01*
X0003226Y0128792D01*
X0003313Y0128798D01*
X0003400Y0128800D01*
X0023400Y0128800D01*
X0023498Y0128802D01*
X0023596Y0128808D01*
X0023694Y0128817D01*
X0023791Y0128831D01*
X0023888Y0128848D01*
X0023984Y0128869D01*
X0024079Y0128894D01*
X0024173Y0128922D01*
X0024265Y0128955D01*
X0024357Y0128990D01*
X0024447Y0129030D01*
X0024535Y0129072D01*
X0024622Y0129119D01*
X0024706Y0129168D01*
X0024789Y0129221D01*
X0024869Y0129277D01*
X0024948Y0129337D01*
X0025024Y0129399D01*
X0025097Y0129464D01*
X0025168Y0129532D01*
X0025236Y0129603D01*
X0025301Y0129676D01*
X0025363Y0129752D01*
X0025423Y0129831D01*
X0025479Y0129911D01*
X0025532Y0129994D01*
X0025581Y0130078D01*
X0025628Y0130165D01*
X0025670Y0130253D01*
X0025710Y0130343D01*
X0025745Y0130435D01*
X0025778Y0130527D01*
X0025806Y0130621D01*
X0025831Y0130716D01*
X0025852Y0130812D01*
X0025869Y0130909D01*
X0025883Y0131006D01*
X0025892Y0131104D01*
X0025898Y0131202D01*
X0025900Y0131300D01*
X0158731Y0132095D02*
X0158731Y0133670D01*
X0162668Y0133670D01*
X0162668Y0132095D01*
X0183278Y0172430D02*
X0183278Y0178729D01*
X0188632Y0178729D01*
X0210443Y0173611D02*
X0214676Y0173611D01*
X0218613Y0173611D02*
X0222845Y0173611D01*
X0226782Y0173611D02*
X0231014Y0173611D01*
X0234951Y0173611D02*
X0239183Y0173611D01*
X0234065Y0165343D02*
X0229317Y0165343D01*
X0234065Y0165344D02*
X0234183Y0165328D01*
X0234301Y0165308D01*
X0234418Y0165284D01*
X0234533Y0165256D01*
X0234648Y0165225D01*
X0234762Y0165190D01*
X0234875Y0165150D01*
X0234986Y0165108D01*
X0235096Y0165061D01*
X0235204Y0165011D01*
X0235311Y0164957D01*
X0235415Y0164900D01*
X0235518Y0164839D01*
X0235618Y0164775D01*
X0235716Y0164707D01*
X0235812Y0164637D01*
X0235906Y0164563D01*
X0235997Y0164486D01*
X0236085Y0164406D01*
X0236171Y0164323D01*
X0236254Y0164237D01*
X0236334Y0164149D01*
X0236411Y0164058D01*
X0236485Y0163964D01*
X0236556Y0163868D01*
X0236623Y0163770D01*
X0236687Y0163669D01*
X0236748Y0163567D01*
X0236805Y0163462D01*
X0236859Y0163356D01*
X0236909Y0163247D01*
X0236956Y0163138D01*
X0236999Y0163026D01*
X0237038Y0162914D01*
X0237073Y0162800D01*
X0237105Y0162685D01*
X0237132Y0162569D01*
X0237156Y0162452D01*
X0237176Y0162335D01*
X0237192Y0162216D01*
X0237204Y0162098D01*
X0237212Y0161979D01*
X0237216Y0161860D01*
X0237216Y0161740D01*
X0237212Y0161621D01*
X0237204Y0161502D01*
X0237192Y0161384D01*
X0237176Y0161265D01*
X0237156Y0161148D01*
X0237132Y0161031D01*
X0237105Y0160915D01*
X0237073Y0160800D01*
X0237038Y0160686D01*
X0236999Y0160574D01*
X0236956Y0160462D01*
X0236909Y0160353D01*
X0236859Y0160244D01*
X0236805Y0160138D01*
X0236748Y0160033D01*
X0236687Y0159931D01*
X0236623Y0159830D01*
X0236556Y0159732D01*
X0236485Y0159636D01*
X0236411Y0159542D01*
X0236334Y0159451D01*
X0236254Y0159363D01*
X0236171Y0159277D01*
X0236085Y0159194D01*
X0235997Y0159114D01*
X0235906Y0159037D01*
X0235812Y0158963D01*
X0235716Y0158893D01*
X0235618Y0158825D01*
X0235518Y0158761D01*
X0235415Y0158700D01*
X0235311Y0158643D01*
X0235204Y0158589D01*
X0235096Y0158539D01*
X0234986Y0158492D01*
X0234875Y0158450D01*
X0234762Y0158410D01*
X0234648Y0158375D01*
X0234533Y0158344D01*
X0234418Y0158316D01*
X0234301Y0158292D01*
X0234183Y0158272D01*
X0234065Y0158256D01*
X0234065Y0158257D02*
X0229317Y0158257D01*
X0225380Y0158257D02*
X0220632Y0158257D01*
X0220632Y0165343D02*
X0225380Y0165343D01*
D14*
X0136982Y0101602D02*
X0136982Y0099133D01*
X0134514Y0101602D01*
X0133896Y0101602D01*
X0133279Y0100985D01*
X0133279Y0099750D01*
X0133896Y0099133D01*
X0133896Y0097919D02*
X0133279Y0097302D01*
X0133279Y0095450D01*
X0136982Y0095450D01*
X0136982Y0097302D01*
X0136365Y0097919D01*
X0133896Y0097919D01*
X0160396Y0062968D02*
X0159779Y0062351D01*
X0159779Y0061117D01*
X0160396Y0060499D01*
X0159779Y0059285D02*
X0163482Y0059285D01*
X0159779Y0056816D01*
X0163482Y0056816D01*
X0162865Y0055602D02*
X0160396Y0055602D01*
X0159779Y0054985D01*
X0159779Y0053750D01*
X0160396Y0053133D01*
X0162865Y0053133D01*
X0163482Y0053750D01*
X0163482Y0054985D01*
X0162865Y0055602D01*
X0162865Y0051919D02*
X0163482Y0051302D01*
X0163482Y0050067D01*
X0162865Y0049450D01*
X0160396Y0049450D01*
X0159779Y0050067D01*
X0159779Y0051302D01*
X0160396Y0051919D01*
X0163482Y0060499D02*
X0161014Y0062968D01*
X0160396Y0062968D01*
X0163482Y0062968D02*
X0163482Y0060499D01*
X0132568Y0052950D02*
X0130099Y0052950D01*
X0128885Y0052950D02*
X0127650Y0054184D01*
X0128268Y0054184D02*
X0126416Y0054184D01*
X0126416Y0052950D02*
X0126416Y0056653D01*
X0128268Y0056653D01*
X0128885Y0056036D01*
X0128885Y0054802D01*
X0128268Y0054184D01*
X0130099Y0055419D02*
X0131334Y0056653D01*
X0131334Y0052950D01*
X0125287Y0043652D02*
X0125771Y0043169D01*
X0125771Y0042685D01*
X0125287Y0042201D01*
X0124320Y0042201D01*
X0123836Y0042685D01*
X0123836Y0043169D01*
X0124320Y0043652D01*
X0125287Y0043652D01*
X0125287Y0042201D02*
X0125771Y0041717D01*
X0125771Y0041234D01*
X0125287Y0040750D01*
X0124320Y0040750D01*
X0123836Y0041234D01*
X0123836Y0041717D01*
X0124320Y0042201D01*
X0122824Y0042201D02*
X0120889Y0042201D01*
X0122340Y0043652D01*
X0122340Y0040750D01*
X0119878Y0040750D02*
X0117943Y0040750D01*
X0118910Y0040750D02*
X0118910Y0043652D01*
X0117943Y0042685D01*
X0116931Y0042201D02*
X0114996Y0042201D01*
X0116447Y0043652D01*
X0116447Y0040750D01*
X0113985Y0040750D02*
X0113985Y0043652D01*
X0112050Y0043652D02*
X0112050Y0040750D01*
X0111038Y0040750D02*
X0109103Y0040750D01*
X0110071Y0040750D02*
X0110071Y0043652D01*
X0109103Y0042685D01*
X0112050Y0043652D02*
X0113985Y0040750D01*
X0121416Y0036653D02*
X0123268Y0036653D01*
X0123885Y0036036D01*
X0123885Y0033567D01*
X0123268Y0032950D01*
X0121416Y0032950D01*
X0121416Y0036653D01*
X0125099Y0035419D02*
X0126334Y0036653D01*
X0126334Y0032950D01*
X0127568Y0032950D02*
X0125099Y0032950D01*
D15*
X0124844Y0060850D02*
X0123043Y0060850D01*
X0123943Y0060850D02*
X0123943Y0063552D01*
X0123043Y0062652D01*
X0125989Y0063102D02*
X0125989Y0061300D01*
X0127791Y0063102D01*
X0127791Y0061300D01*
X0127340Y0060850D01*
X0126440Y0060850D01*
X0125989Y0061300D01*
X0125989Y0063102D02*
X0126440Y0063552D01*
X0127340Y0063552D01*
X0127791Y0063102D01*
X0128936Y0063552D02*
X0128936Y0060850D01*
X0128936Y0061751D02*
X0130737Y0063552D01*
X0129386Y0062201D02*
X0130737Y0060850D01*
X0143047Y0095550D02*
X0141879Y0096718D01*
X0145382Y0096718D01*
X0145382Y0097885D02*
X0145382Y0095550D01*
X0145382Y0099233D02*
X0141879Y0099233D01*
X0145382Y0101568D01*
X0141879Y0101568D01*
X0143631Y0102916D02*
X0143631Y0105252D01*
X0144798Y0106599D02*
X0142463Y0106599D01*
X0141879Y0107183D01*
X0141879Y0108351D01*
X0142463Y0108935D01*
X0144798Y0106599D01*
X0145382Y0107183D01*
X0145382Y0108351D01*
X0144798Y0108935D01*
X0142463Y0108935D01*
X0142463Y0110283D02*
X0141879Y0110866D01*
X0141879Y0112034D01*
X0142463Y0112618D01*
X0144798Y0110283D01*
X0145382Y0110866D01*
X0145382Y0112034D01*
X0144798Y0112618D01*
X0142463Y0112618D01*
X0142463Y0113966D02*
X0141879Y0114550D01*
X0141879Y0115717D01*
X0142463Y0116301D01*
X0143047Y0116301D01*
X0145382Y0113966D01*
X0145382Y0116301D01*
X0144798Y0110283D02*
X0142463Y0110283D01*
X0141879Y0104668D02*
X0143631Y0102916D01*
X0145382Y0104668D02*
X0141879Y0104668D01*
X0117182Y0107801D02*
X0116432Y0107050D01*
X0113429Y0107050D01*
X0112678Y0107801D01*
X0112678Y0109302D01*
X0113429Y0110053D01*
X0116432Y0110053D01*
X0117182Y0109302D01*
X0117182Y0107801D01*
X0115681Y0108551D02*
X0117182Y0110053D01*
X0117182Y0111654D02*
X0117182Y0114656D01*
X0117182Y0113155D02*
X0112678Y0113155D01*
X0114180Y0111654D01*
X0110632Y0108300D02*
X0109632Y0107300D01*
X0098132Y0106800D01*
X0102880Y0114550D02*
X0101378Y0116051D01*
X0105882Y0116051D01*
X0105882Y0114550D02*
X0105882Y0117553D01*
X0105882Y0124550D02*
X0102880Y0127553D01*
X0102129Y0127553D01*
X0101378Y0126802D01*
X0101378Y0125301D01*
X0102129Y0124550D01*
X0105882Y0124550D02*
X0105882Y0127553D01*
X0111378Y0127050D02*
X0111378Y0130053D01*
X0112129Y0131654D02*
X0111378Y0132405D01*
X0111378Y0133906D01*
X0112129Y0134656D01*
X0115132Y0134656D01*
X0115882Y0133906D01*
X0115882Y0132405D01*
X0115132Y0131654D01*
X0112129Y0131654D01*
X0114381Y0133155D02*
X0115882Y0134656D01*
X0115882Y0136258D02*
X0111378Y0136258D01*
X0111378Y0138510D01*
X0112129Y0139260D01*
X0113630Y0139260D01*
X0114381Y0138510D01*
X0114381Y0136258D01*
X0115132Y0140862D02*
X0115882Y0141612D01*
X0115882Y0143114D01*
X0115132Y0143864D01*
X0114381Y0143864D01*
X0113630Y0143114D01*
X0113630Y0142363D01*
X0113630Y0143114D02*
X0112880Y0143864D01*
X0112129Y0143864D01*
X0111378Y0143114D01*
X0111378Y0141612D01*
X0112129Y0140862D01*
X0112129Y0145466D02*
X0111378Y0146216D01*
X0111378Y0147718D01*
X0112129Y0148468D01*
X0115132Y0145466D01*
X0115882Y0146216D01*
X0115882Y0147718D01*
X0115132Y0148468D01*
X0112129Y0148468D01*
X0111378Y0150070D02*
X0115882Y0153072D01*
X0111378Y0153072D01*
X0112129Y0154674D02*
X0111378Y0155424D01*
X0111378Y0156925D01*
X0112129Y0157676D01*
X0115132Y0154674D01*
X0115882Y0155424D01*
X0115882Y0156925D01*
X0115132Y0157676D01*
X0112129Y0157676D01*
X0113630Y0159277D02*
X0113630Y0161529D01*
X0114381Y0162280D01*
X0115132Y0162280D01*
X0115882Y0161529D01*
X0115882Y0160028D01*
X0115132Y0159277D01*
X0113630Y0159277D01*
X0112129Y0160779D01*
X0111378Y0162280D01*
X0111378Y0163881D02*
X0115882Y0163881D01*
X0115882Y0166884D01*
X0115132Y0154674D02*
X0112129Y0154674D01*
X0111378Y0150070D02*
X0115882Y0150070D01*
X0115132Y0145466D02*
X0112129Y0145466D01*
X0110632Y0145300D02*
X0109632Y0146300D01*
X0098132Y0146800D01*
X0102129Y0137553D02*
X0102880Y0137553D01*
X0103630Y0136802D01*
X0104381Y0137553D01*
X0105132Y0137553D01*
X0105882Y0136802D01*
X0105882Y0135301D01*
X0105132Y0134550D01*
X0103630Y0136051D02*
X0103630Y0136802D01*
X0102129Y0137553D02*
X0101378Y0136802D01*
X0101378Y0135301D01*
X0102129Y0134550D01*
X0111378Y0127050D02*
X0115882Y0127050D01*
X0113630Y0127050D02*
X0113630Y0128551D01*
X0110632Y0145300D02*
X0110632Y0108300D01*
X0107232Y0109100D02*
X0107234Y0109163D01*
X0107240Y0109225D01*
X0107250Y0109287D01*
X0107263Y0109349D01*
X0107281Y0109409D01*
X0107302Y0109468D01*
X0107327Y0109526D01*
X0107356Y0109582D01*
X0107388Y0109636D01*
X0107423Y0109688D01*
X0107461Y0109737D01*
X0107503Y0109785D01*
X0107547Y0109829D01*
X0107595Y0109871D01*
X0107644Y0109909D01*
X0107696Y0109944D01*
X0107750Y0109976D01*
X0107806Y0110005D01*
X0107864Y0110030D01*
X0107923Y0110051D01*
X0107983Y0110069D01*
X0108045Y0110082D01*
X0108107Y0110092D01*
X0108169Y0110098D01*
X0108232Y0110100D01*
X0108295Y0110098D01*
X0108357Y0110092D01*
X0108419Y0110082D01*
X0108481Y0110069D01*
X0108541Y0110051D01*
X0108600Y0110030D01*
X0108658Y0110005D01*
X0108714Y0109976D01*
X0108768Y0109944D01*
X0108820Y0109909D01*
X0108869Y0109871D01*
X0108917Y0109829D01*
X0108961Y0109785D01*
X0109003Y0109737D01*
X0109041Y0109688D01*
X0109076Y0109636D01*
X0109108Y0109582D01*
X0109137Y0109526D01*
X0109162Y0109468D01*
X0109183Y0109409D01*
X0109201Y0109349D01*
X0109214Y0109287D01*
X0109224Y0109225D01*
X0109230Y0109163D01*
X0109232Y0109100D01*
X0109230Y0109037D01*
X0109224Y0108975D01*
X0109214Y0108913D01*
X0109201Y0108851D01*
X0109183Y0108791D01*
X0109162Y0108732D01*
X0109137Y0108674D01*
X0109108Y0108618D01*
X0109076Y0108564D01*
X0109041Y0108512D01*
X0109003Y0108463D01*
X0108961Y0108415D01*
X0108917Y0108371D01*
X0108869Y0108329D01*
X0108820Y0108291D01*
X0108768Y0108256D01*
X0108714Y0108224D01*
X0108658Y0108195D01*
X0108600Y0108170D01*
X0108541Y0108149D01*
X0108481Y0108131D01*
X0108419Y0108118D01*
X0108357Y0108108D01*
X0108295Y0108102D01*
X0108232Y0108100D01*
X0108169Y0108102D01*
X0108107Y0108108D01*
X0108045Y0108118D01*
X0107983Y0108131D01*
X0107923Y0108149D01*
X0107864Y0108170D01*
X0107806Y0108195D01*
X0107750Y0108224D01*
X0107696Y0108256D01*
X0107644Y0108291D01*
X0107595Y0108329D01*
X0107547Y0108371D01*
X0107503Y0108415D01*
X0107461Y0108463D01*
X0107423Y0108512D01*
X0107388Y0108564D01*
X0107356Y0108618D01*
X0107327Y0108674D01*
X0107302Y0108732D01*
X0107281Y0108791D01*
X0107263Y0108851D01*
X0107250Y0108913D01*
X0107240Y0108975D01*
X0107234Y0109037D01*
X0107232Y0109100D01*
D16*
X0095132Y0126800D03*
D17*
X0097632Y0109550D03*
X0097632Y0144050D03*
D18*
X0097632Y0131800D03*
X0097632Y0121800D03*
D19*
X0097632Y0126800D03*
X0097632Y0116800D03*
X0097632Y0136800D03*
D20*
X0101332Y0101604D02*
X0102867Y0100069D01*
X0104402Y0101604D01*
X0104402Y0097000D01*
X0105936Y0097767D02*
X0106704Y0097000D01*
X0108238Y0097000D01*
X0109005Y0097767D01*
X0109005Y0099302D01*
X0108238Y0100069D01*
X0106704Y0100069D01*
X0105936Y0099302D01*
X0105936Y0097767D01*
X0105936Y0094104D02*
X0108238Y0094104D01*
X0109005Y0093337D01*
X0109005Y0091802D01*
X0108238Y0091035D01*
X0105936Y0091035D01*
X0107471Y0091035D02*
X0109005Y0089500D01*
X0110540Y0090267D02*
X0111307Y0091035D01*
X0113609Y0091035D01*
X0113609Y0091802D02*
X0113609Y0089500D01*
X0111307Y0089500D01*
X0110540Y0090267D01*
X0111307Y0092569D02*
X0112842Y0092569D01*
X0113609Y0091802D01*
X0115144Y0092569D02*
X0115911Y0092569D01*
X0115911Y0089500D01*
X0115144Y0089500D02*
X0116679Y0089500D01*
X0118213Y0089500D02*
X0119748Y0089500D01*
X0118981Y0089500D02*
X0118981Y0094104D01*
X0118213Y0094104D01*
X0115911Y0094104D02*
X0115911Y0094871D01*
X0115911Y0097000D02*
X0115144Y0097767D01*
X0115144Y0099302D01*
X0115911Y0100069D01*
X0117446Y0100069D01*
X0118213Y0099302D01*
X0118213Y0098535D01*
X0115144Y0098535D01*
X0115911Y0097000D02*
X0117446Y0097000D01*
X0119748Y0097000D02*
X0121283Y0097000D01*
X0120515Y0097000D02*
X0120515Y0101604D01*
X0119748Y0101604D01*
X0113609Y0101604D02*
X0113609Y0097000D01*
X0111307Y0097000D01*
X0110540Y0097767D01*
X0110540Y0099302D01*
X0111307Y0100069D01*
X0113609Y0100069D01*
X0105936Y0094104D02*
X0105936Y0089500D01*
X0110540Y0085837D02*
X0110540Y0082767D01*
X0111307Y0082000D01*
X0112842Y0082000D01*
X0113609Y0082767D01*
X0115144Y0082767D02*
X0115911Y0082000D01*
X0117446Y0082000D01*
X0118213Y0082767D01*
X0118213Y0084302D01*
X0117446Y0085069D01*
X0115911Y0085069D01*
X0115144Y0084302D01*
X0115144Y0082767D01*
X0113609Y0085837D02*
X0112842Y0086604D01*
X0111307Y0086604D01*
X0110540Y0085837D01*
X0115911Y0079104D02*
X0115144Y0078337D01*
X0115144Y0077569D01*
X0115911Y0076802D01*
X0117446Y0076802D01*
X0118213Y0076035D01*
X0118213Y0075267D01*
X0117446Y0074500D01*
X0115911Y0074500D01*
X0115144Y0075267D01*
X0115911Y0079104D02*
X0117446Y0079104D01*
X0118213Y0078337D01*
X0119748Y0077569D02*
X0119748Y0075267D01*
X0120515Y0074500D01*
X0122817Y0074500D01*
X0122817Y0073733D02*
X0122050Y0072965D01*
X0121283Y0072965D01*
X0122817Y0073733D02*
X0122817Y0077569D01*
X0124352Y0076802D02*
X0125119Y0077569D01*
X0127421Y0077569D01*
X0128956Y0077569D02*
X0130490Y0077569D01*
X0129723Y0078337D02*
X0129723Y0075267D01*
X0130490Y0074500D01*
X0132025Y0075267D02*
X0132025Y0076802D01*
X0132792Y0077569D01*
X0134327Y0077569D01*
X0135094Y0076802D01*
X0135094Y0076035D01*
X0132025Y0076035D01*
X0132025Y0075267D02*
X0132792Y0074500D01*
X0134327Y0074500D01*
X0136629Y0074500D02*
X0136629Y0077569D01*
X0137396Y0077569D01*
X0138164Y0076802D01*
X0138931Y0077569D01*
X0139698Y0076802D01*
X0139698Y0074500D01*
X0138164Y0074500D02*
X0138164Y0076802D01*
X0141233Y0076802D02*
X0142000Y0077569D01*
X0144302Y0077569D01*
X0143535Y0076035D02*
X0142000Y0076035D01*
X0141233Y0076802D01*
X0141233Y0074500D02*
X0143535Y0074500D01*
X0144302Y0075267D01*
X0143535Y0076035D01*
X0137396Y0082000D02*
X0135862Y0082000D01*
X0136629Y0082000D02*
X0136629Y0086604D01*
X0135862Y0086604D01*
X0134327Y0084302D02*
X0133560Y0085069D01*
X0132025Y0085069D01*
X0131258Y0084302D01*
X0131258Y0082767D01*
X0132025Y0082000D01*
X0133560Y0082000D01*
X0134327Y0082767D01*
X0134327Y0084302D01*
X0129723Y0085069D02*
X0128956Y0085069D01*
X0127421Y0083535D01*
X0127421Y0085069D02*
X0127421Y0082000D01*
X0125887Y0082000D02*
X0125119Y0082767D01*
X0125119Y0085837D01*
X0124352Y0085069D02*
X0125887Y0085069D01*
X0122817Y0084302D02*
X0122817Y0082000D01*
X0122817Y0084302D02*
X0122050Y0085069D01*
X0119748Y0085069D01*
X0119748Y0082000D01*
X0124352Y0076802D02*
X0125119Y0076035D01*
X0126654Y0076035D01*
X0127421Y0075267D01*
X0126654Y0074500D01*
X0124352Y0074500D01*
X0125887Y0089500D02*
X0125119Y0090267D01*
X0125119Y0091802D01*
X0125887Y0092569D01*
X0127421Y0092569D01*
X0128188Y0091802D01*
X0128188Y0090267D01*
X0127421Y0089500D01*
X0125887Y0089500D01*
X0129723Y0090267D02*
X0130490Y0091035D01*
X0132792Y0091035D01*
X0132792Y0091802D02*
X0132792Y0089500D01*
X0130490Y0089500D01*
X0129723Y0090267D01*
X0130490Y0092569D02*
X0132025Y0092569D01*
X0132792Y0091802D01*
X0134327Y0091802D02*
X0135094Y0092569D01*
X0137396Y0092569D01*
X0137396Y0094104D02*
X0137396Y0089500D01*
X0135094Y0089500D01*
X0134327Y0090267D01*
X0134327Y0091802D01*
X0123585Y0092569D02*
X0122817Y0092569D01*
X0121283Y0091035D01*
X0121283Y0092569D02*
X0121283Y0089500D01*
X0101332Y0097000D02*
X0101332Y0101604D01*
X0053117Y0099955D02*
X0053117Y0097553D01*
X0053117Y0098754D02*
X0049514Y0098754D01*
X0050715Y0097553D01*
X0049514Y0096272D02*
X0053117Y0093870D01*
X0053117Y0096272D02*
X0049514Y0093870D01*
X0185417Y0137767D02*
X0186184Y0137000D01*
X0187719Y0137000D01*
X0188486Y0137767D01*
X0190020Y0137767D02*
X0190788Y0137000D01*
X0192322Y0137000D01*
X0193090Y0137767D01*
X0193090Y0140837D01*
X0192322Y0141604D01*
X0190788Y0141604D01*
X0190020Y0140837D01*
X0190020Y0137767D01*
X0188486Y0140837D02*
X0187719Y0141604D01*
X0186184Y0141604D01*
X0185417Y0140837D01*
X0185417Y0137767D01*
X0194624Y0137000D02*
X0194624Y0141604D01*
X0197694Y0137000D01*
X0197694Y0141604D01*
X0199228Y0140069D02*
X0200763Y0141604D01*
X0200763Y0137000D01*
X0199228Y0137000D02*
X0202298Y0137000D01*
D21*
X0088632Y0061800D02*
X0088632Y0041800D01*
X0098632Y0041800D02*
X0078632Y0041800D01*
D22*
X0088632Y0061800D02*
X0088632Y0081800D01*
X0098632Y0081800D01*
X0088632Y0081800D02*
X0088632Y0101800D01*
X0098632Y0091800D01*
M02*
