G75*
%MOIN*%
%OFA0B0*%
%FSLAX25Y25*%
%IPPOS*%
%LPD*%
%AMOC8*
5,1,8,0,0,1.08239X$1,22.5*
%
%ADD10C,0.00000*%
%ADD11C,0.07400*%
%ADD12C,0.07800*%
%ADD13C,0.06000*%
%ADD14R,0.07400X0.07400*%
%ADD15C,0.20000*%
%ADD16R,0.08000X0.08000*%
%ADD17C,0.08000*%
%ADD18OC8,0.17717*%
%ADD19C,0.18504*%
%ADD20C,0.01600*%
D10*
X0033632Y0001800D02*
X0033632Y0198650D01*
X0230483Y0198650D01*
X0230483Y0001800D01*
X0033632Y0001800D01*
X0047333Y0021800D02*
X0047335Y0021958D01*
X0047341Y0022116D01*
X0047351Y0022274D01*
X0047365Y0022432D01*
X0047383Y0022589D01*
X0047404Y0022746D01*
X0047430Y0022902D01*
X0047460Y0023058D01*
X0047493Y0023213D01*
X0047531Y0023366D01*
X0047572Y0023519D01*
X0047617Y0023671D01*
X0047666Y0023822D01*
X0047719Y0023971D01*
X0047775Y0024119D01*
X0047835Y0024265D01*
X0047899Y0024410D01*
X0047967Y0024553D01*
X0048038Y0024695D01*
X0048112Y0024835D01*
X0048190Y0024972D01*
X0048272Y0025108D01*
X0048356Y0025242D01*
X0048445Y0025373D01*
X0048536Y0025502D01*
X0048631Y0025629D01*
X0048728Y0025754D01*
X0048829Y0025876D01*
X0048933Y0025995D01*
X0049040Y0026112D01*
X0049150Y0026226D01*
X0049263Y0026337D01*
X0049378Y0026446D01*
X0049496Y0026551D01*
X0049617Y0026653D01*
X0049740Y0026753D01*
X0049866Y0026849D01*
X0049994Y0026942D01*
X0050124Y0027032D01*
X0050257Y0027118D01*
X0050392Y0027202D01*
X0050528Y0027281D01*
X0050667Y0027358D01*
X0050808Y0027430D01*
X0050950Y0027500D01*
X0051094Y0027565D01*
X0051240Y0027627D01*
X0051387Y0027685D01*
X0051536Y0027740D01*
X0051686Y0027791D01*
X0051837Y0027838D01*
X0051989Y0027881D01*
X0052142Y0027920D01*
X0052297Y0027956D01*
X0052452Y0027987D01*
X0052608Y0028015D01*
X0052764Y0028039D01*
X0052921Y0028059D01*
X0053079Y0028075D01*
X0053236Y0028087D01*
X0053395Y0028095D01*
X0053553Y0028099D01*
X0053711Y0028099D01*
X0053869Y0028095D01*
X0054028Y0028087D01*
X0054185Y0028075D01*
X0054343Y0028059D01*
X0054500Y0028039D01*
X0054656Y0028015D01*
X0054812Y0027987D01*
X0054967Y0027956D01*
X0055122Y0027920D01*
X0055275Y0027881D01*
X0055427Y0027838D01*
X0055578Y0027791D01*
X0055728Y0027740D01*
X0055877Y0027685D01*
X0056024Y0027627D01*
X0056170Y0027565D01*
X0056314Y0027500D01*
X0056456Y0027430D01*
X0056597Y0027358D01*
X0056736Y0027281D01*
X0056872Y0027202D01*
X0057007Y0027118D01*
X0057140Y0027032D01*
X0057270Y0026942D01*
X0057398Y0026849D01*
X0057524Y0026753D01*
X0057647Y0026653D01*
X0057768Y0026551D01*
X0057886Y0026446D01*
X0058001Y0026337D01*
X0058114Y0026226D01*
X0058224Y0026112D01*
X0058331Y0025995D01*
X0058435Y0025876D01*
X0058536Y0025754D01*
X0058633Y0025629D01*
X0058728Y0025502D01*
X0058819Y0025373D01*
X0058908Y0025242D01*
X0058992Y0025108D01*
X0059074Y0024972D01*
X0059152Y0024835D01*
X0059226Y0024695D01*
X0059297Y0024553D01*
X0059365Y0024410D01*
X0059429Y0024265D01*
X0059489Y0024119D01*
X0059545Y0023971D01*
X0059598Y0023822D01*
X0059647Y0023671D01*
X0059692Y0023519D01*
X0059733Y0023366D01*
X0059771Y0023213D01*
X0059804Y0023058D01*
X0059834Y0022902D01*
X0059860Y0022746D01*
X0059881Y0022589D01*
X0059899Y0022432D01*
X0059913Y0022274D01*
X0059923Y0022116D01*
X0059929Y0021958D01*
X0059931Y0021800D01*
X0059929Y0021642D01*
X0059923Y0021484D01*
X0059913Y0021326D01*
X0059899Y0021168D01*
X0059881Y0021011D01*
X0059860Y0020854D01*
X0059834Y0020698D01*
X0059804Y0020542D01*
X0059771Y0020387D01*
X0059733Y0020234D01*
X0059692Y0020081D01*
X0059647Y0019929D01*
X0059598Y0019778D01*
X0059545Y0019629D01*
X0059489Y0019481D01*
X0059429Y0019335D01*
X0059365Y0019190D01*
X0059297Y0019047D01*
X0059226Y0018905D01*
X0059152Y0018765D01*
X0059074Y0018628D01*
X0058992Y0018492D01*
X0058908Y0018358D01*
X0058819Y0018227D01*
X0058728Y0018098D01*
X0058633Y0017971D01*
X0058536Y0017846D01*
X0058435Y0017724D01*
X0058331Y0017605D01*
X0058224Y0017488D01*
X0058114Y0017374D01*
X0058001Y0017263D01*
X0057886Y0017154D01*
X0057768Y0017049D01*
X0057647Y0016947D01*
X0057524Y0016847D01*
X0057398Y0016751D01*
X0057270Y0016658D01*
X0057140Y0016568D01*
X0057007Y0016482D01*
X0056872Y0016398D01*
X0056736Y0016319D01*
X0056597Y0016242D01*
X0056456Y0016170D01*
X0056314Y0016100D01*
X0056170Y0016035D01*
X0056024Y0015973D01*
X0055877Y0015915D01*
X0055728Y0015860D01*
X0055578Y0015809D01*
X0055427Y0015762D01*
X0055275Y0015719D01*
X0055122Y0015680D01*
X0054967Y0015644D01*
X0054812Y0015613D01*
X0054656Y0015585D01*
X0054500Y0015561D01*
X0054343Y0015541D01*
X0054185Y0015525D01*
X0054028Y0015513D01*
X0053869Y0015505D01*
X0053711Y0015501D01*
X0053553Y0015501D01*
X0053395Y0015505D01*
X0053236Y0015513D01*
X0053079Y0015525D01*
X0052921Y0015541D01*
X0052764Y0015561D01*
X0052608Y0015585D01*
X0052452Y0015613D01*
X0052297Y0015644D01*
X0052142Y0015680D01*
X0051989Y0015719D01*
X0051837Y0015762D01*
X0051686Y0015809D01*
X0051536Y0015860D01*
X0051387Y0015915D01*
X0051240Y0015973D01*
X0051094Y0016035D01*
X0050950Y0016100D01*
X0050808Y0016170D01*
X0050667Y0016242D01*
X0050528Y0016319D01*
X0050392Y0016398D01*
X0050257Y0016482D01*
X0050124Y0016568D01*
X0049994Y0016658D01*
X0049866Y0016751D01*
X0049740Y0016847D01*
X0049617Y0016947D01*
X0049496Y0017049D01*
X0049378Y0017154D01*
X0049263Y0017263D01*
X0049150Y0017374D01*
X0049040Y0017488D01*
X0048933Y0017605D01*
X0048829Y0017724D01*
X0048728Y0017846D01*
X0048631Y0017971D01*
X0048536Y0018098D01*
X0048445Y0018227D01*
X0048356Y0018358D01*
X0048272Y0018492D01*
X0048190Y0018628D01*
X0048112Y0018765D01*
X0048038Y0018905D01*
X0047967Y0019047D01*
X0047899Y0019190D01*
X0047835Y0019335D01*
X0047775Y0019481D01*
X0047719Y0019629D01*
X0047666Y0019778D01*
X0047617Y0019929D01*
X0047572Y0020081D01*
X0047531Y0020234D01*
X0047493Y0020387D01*
X0047460Y0020542D01*
X0047430Y0020698D01*
X0047404Y0020854D01*
X0047383Y0021011D01*
X0047365Y0021168D01*
X0047351Y0021326D01*
X0047341Y0021484D01*
X0047335Y0021642D01*
X0047333Y0021800D01*
X0207333Y0021800D02*
X0207335Y0021958D01*
X0207341Y0022116D01*
X0207351Y0022274D01*
X0207365Y0022432D01*
X0207383Y0022589D01*
X0207404Y0022746D01*
X0207430Y0022902D01*
X0207460Y0023058D01*
X0207493Y0023213D01*
X0207531Y0023366D01*
X0207572Y0023519D01*
X0207617Y0023671D01*
X0207666Y0023822D01*
X0207719Y0023971D01*
X0207775Y0024119D01*
X0207835Y0024265D01*
X0207899Y0024410D01*
X0207967Y0024553D01*
X0208038Y0024695D01*
X0208112Y0024835D01*
X0208190Y0024972D01*
X0208272Y0025108D01*
X0208356Y0025242D01*
X0208445Y0025373D01*
X0208536Y0025502D01*
X0208631Y0025629D01*
X0208728Y0025754D01*
X0208829Y0025876D01*
X0208933Y0025995D01*
X0209040Y0026112D01*
X0209150Y0026226D01*
X0209263Y0026337D01*
X0209378Y0026446D01*
X0209496Y0026551D01*
X0209617Y0026653D01*
X0209740Y0026753D01*
X0209866Y0026849D01*
X0209994Y0026942D01*
X0210124Y0027032D01*
X0210257Y0027118D01*
X0210392Y0027202D01*
X0210528Y0027281D01*
X0210667Y0027358D01*
X0210808Y0027430D01*
X0210950Y0027500D01*
X0211094Y0027565D01*
X0211240Y0027627D01*
X0211387Y0027685D01*
X0211536Y0027740D01*
X0211686Y0027791D01*
X0211837Y0027838D01*
X0211989Y0027881D01*
X0212142Y0027920D01*
X0212297Y0027956D01*
X0212452Y0027987D01*
X0212608Y0028015D01*
X0212764Y0028039D01*
X0212921Y0028059D01*
X0213079Y0028075D01*
X0213236Y0028087D01*
X0213395Y0028095D01*
X0213553Y0028099D01*
X0213711Y0028099D01*
X0213869Y0028095D01*
X0214028Y0028087D01*
X0214185Y0028075D01*
X0214343Y0028059D01*
X0214500Y0028039D01*
X0214656Y0028015D01*
X0214812Y0027987D01*
X0214967Y0027956D01*
X0215122Y0027920D01*
X0215275Y0027881D01*
X0215427Y0027838D01*
X0215578Y0027791D01*
X0215728Y0027740D01*
X0215877Y0027685D01*
X0216024Y0027627D01*
X0216170Y0027565D01*
X0216314Y0027500D01*
X0216456Y0027430D01*
X0216597Y0027358D01*
X0216736Y0027281D01*
X0216872Y0027202D01*
X0217007Y0027118D01*
X0217140Y0027032D01*
X0217270Y0026942D01*
X0217398Y0026849D01*
X0217524Y0026753D01*
X0217647Y0026653D01*
X0217768Y0026551D01*
X0217886Y0026446D01*
X0218001Y0026337D01*
X0218114Y0026226D01*
X0218224Y0026112D01*
X0218331Y0025995D01*
X0218435Y0025876D01*
X0218536Y0025754D01*
X0218633Y0025629D01*
X0218728Y0025502D01*
X0218819Y0025373D01*
X0218908Y0025242D01*
X0218992Y0025108D01*
X0219074Y0024972D01*
X0219152Y0024835D01*
X0219226Y0024695D01*
X0219297Y0024553D01*
X0219365Y0024410D01*
X0219429Y0024265D01*
X0219489Y0024119D01*
X0219545Y0023971D01*
X0219598Y0023822D01*
X0219647Y0023671D01*
X0219692Y0023519D01*
X0219733Y0023366D01*
X0219771Y0023213D01*
X0219804Y0023058D01*
X0219834Y0022902D01*
X0219860Y0022746D01*
X0219881Y0022589D01*
X0219899Y0022432D01*
X0219913Y0022274D01*
X0219923Y0022116D01*
X0219929Y0021958D01*
X0219931Y0021800D01*
X0219929Y0021642D01*
X0219923Y0021484D01*
X0219913Y0021326D01*
X0219899Y0021168D01*
X0219881Y0021011D01*
X0219860Y0020854D01*
X0219834Y0020698D01*
X0219804Y0020542D01*
X0219771Y0020387D01*
X0219733Y0020234D01*
X0219692Y0020081D01*
X0219647Y0019929D01*
X0219598Y0019778D01*
X0219545Y0019629D01*
X0219489Y0019481D01*
X0219429Y0019335D01*
X0219365Y0019190D01*
X0219297Y0019047D01*
X0219226Y0018905D01*
X0219152Y0018765D01*
X0219074Y0018628D01*
X0218992Y0018492D01*
X0218908Y0018358D01*
X0218819Y0018227D01*
X0218728Y0018098D01*
X0218633Y0017971D01*
X0218536Y0017846D01*
X0218435Y0017724D01*
X0218331Y0017605D01*
X0218224Y0017488D01*
X0218114Y0017374D01*
X0218001Y0017263D01*
X0217886Y0017154D01*
X0217768Y0017049D01*
X0217647Y0016947D01*
X0217524Y0016847D01*
X0217398Y0016751D01*
X0217270Y0016658D01*
X0217140Y0016568D01*
X0217007Y0016482D01*
X0216872Y0016398D01*
X0216736Y0016319D01*
X0216597Y0016242D01*
X0216456Y0016170D01*
X0216314Y0016100D01*
X0216170Y0016035D01*
X0216024Y0015973D01*
X0215877Y0015915D01*
X0215728Y0015860D01*
X0215578Y0015809D01*
X0215427Y0015762D01*
X0215275Y0015719D01*
X0215122Y0015680D01*
X0214967Y0015644D01*
X0214812Y0015613D01*
X0214656Y0015585D01*
X0214500Y0015561D01*
X0214343Y0015541D01*
X0214185Y0015525D01*
X0214028Y0015513D01*
X0213869Y0015505D01*
X0213711Y0015501D01*
X0213553Y0015501D01*
X0213395Y0015505D01*
X0213236Y0015513D01*
X0213079Y0015525D01*
X0212921Y0015541D01*
X0212764Y0015561D01*
X0212608Y0015585D01*
X0212452Y0015613D01*
X0212297Y0015644D01*
X0212142Y0015680D01*
X0211989Y0015719D01*
X0211837Y0015762D01*
X0211686Y0015809D01*
X0211536Y0015860D01*
X0211387Y0015915D01*
X0211240Y0015973D01*
X0211094Y0016035D01*
X0210950Y0016100D01*
X0210808Y0016170D01*
X0210667Y0016242D01*
X0210528Y0016319D01*
X0210392Y0016398D01*
X0210257Y0016482D01*
X0210124Y0016568D01*
X0209994Y0016658D01*
X0209866Y0016751D01*
X0209740Y0016847D01*
X0209617Y0016947D01*
X0209496Y0017049D01*
X0209378Y0017154D01*
X0209263Y0017263D01*
X0209150Y0017374D01*
X0209040Y0017488D01*
X0208933Y0017605D01*
X0208829Y0017724D01*
X0208728Y0017846D01*
X0208631Y0017971D01*
X0208536Y0018098D01*
X0208445Y0018227D01*
X0208356Y0018358D01*
X0208272Y0018492D01*
X0208190Y0018628D01*
X0208112Y0018765D01*
X0208038Y0018905D01*
X0207967Y0019047D01*
X0207899Y0019190D01*
X0207835Y0019335D01*
X0207775Y0019481D01*
X0207719Y0019629D01*
X0207666Y0019778D01*
X0207617Y0019929D01*
X0207572Y0020081D01*
X0207531Y0020234D01*
X0207493Y0020387D01*
X0207460Y0020542D01*
X0207430Y0020698D01*
X0207404Y0020854D01*
X0207383Y0021011D01*
X0207365Y0021168D01*
X0207351Y0021326D01*
X0207341Y0021484D01*
X0207335Y0021642D01*
X0207333Y0021800D01*
X0047333Y0181800D02*
X0047335Y0181958D01*
X0047341Y0182116D01*
X0047351Y0182274D01*
X0047365Y0182432D01*
X0047383Y0182589D01*
X0047404Y0182746D01*
X0047430Y0182902D01*
X0047460Y0183058D01*
X0047493Y0183213D01*
X0047531Y0183366D01*
X0047572Y0183519D01*
X0047617Y0183671D01*
X0047666Y0183822D01*
X0047719Y0183971D01*
X0047775Y0184119D01*
X0047835Y0184265D01*
X0047899Y0184410D01*
X0047967Y0184553D01*
X0048038Y0184695D01*
X0048112Y0184835D01*
X0048190Y0184972D01*
X0048272Y0185108D01*
X0048356Y0185242D01*
X0048445Y0185373D01*
X0048536Y0185502D01*
X0048631Y0185629D01*
X0048728Y0185754D01*
X0048829Y0185876D01*
X0048933Y0185995D01*
X0049040Y0186112D01*
X0049150Y0186226D01*
X0049263Y0186337D01*
X0049378Y0186446D01*
X0049496Y0186551D01*
X0049617Y0186653D01*
X0049740Y0186753D01*
X0049866Y0186849D01*
X0049994Y0186942D01*
X0050124Y0187032D01*
X0050257Y0187118D01*
X0050392Y0187202D01*
X0050528Y0187281D01*
X0050667Y0187358D01*
X0050808Y0187430D01*
X0050950Y0187500D01*
X0051094Y0187565D01*
X0051240Y0187627D01*
X0051387Y0187685D01*
X0051536Y0187740D01*
X0051686Y0187791D01*
X0051837Y0187838D01*
X0051989Y0187881D01*
X0052142Y0187920D01*
X0052297Y0187956D01*
X0052452Y0187987D01*
X0052608Y0188015D01*
X0052764Y0188039D01*
X0052921Y0188059D01*
X0053079Y0188075D01*
X0053236Y0188087D01*
X0053395Y0188095D01*
X0053553Y0188099D01*
X0053711Y0188099D01*
X0053869Y0188095D01*
X0054028Y0188087D01*
X0054185Y0188075D01*
X0054343Y0188059D01*
X0054500Y0188039D01*
X0054656Y0188015D01*
X0054812Y0187987D01*
X0054967Y0187956D01*
X0055122Y0187920D01*
X0055275Y0187881D01*
X0055427Y0187838D01*
X0055578Y0187791D01*
X0055728Y0187740D01*
X0055877Y0187685D01*
X0056024Y0187627D01*
X0056170Y0187565D01*
X0056314Y0187500D01*
X0056456Y0187430D01*
X0056597Y0187358D01*
X0056736Y0187281D01*
X0056872Y0187202D01*
X0057007Y0187118D01*
X0057140Y0187032D01*
X0057270Y0186942D01*
X0057398Y0186849D01*
X0057524Y0186753D01*
X0057647Y0186653D01*
X0057768Y0186551D01*
X0057886Y0186446D01*
X0058001Y0186337D01*
X0058114Y0186226D01*
X0058224Y0186112D01*
X0058331Y0185995D01*
X0058435Y0185876D01*
X0058536Y0185754D01*
X0058633Y0185629D01*
X0058728Y0185502D01*
X0058819Y0185373D01*
X0058908Y0185242D01*
X0058992Y0185108D01*
X0059074Y0184972D01*
X0059152Y0184835D01*
X0059226Y0184695D01*
X0059297Y0184553D01*
X0059365Y0184410D01*
X0059429Y0184265D01*
X0059489Y0184119D01*
X0059545Y0183971D01*
X0059598Y0183822D01*
X0059647Y0183671D01*
X0059692Y0183519D01*
X0059733Y0183366D01*
X0059771Y0183213D01*
X0059804Y0183058D01*
X0059834Y0182902D01*
X0059860Y0182746D01*
X0059881Y0182589D01*
X0059899Y0182432D01*
X0059913Y0182274D01*
X0059923Y0182116D01*
X0059929Y0181958D01*
X0059931Y0181800D01*
X0059929Y0181642D01*
X0059923Y0181484D01*
X0059913Y0181326D01*
X0059899Y0181168D01*
X0059881Y0181011D01*
X0059860Y0180854D01*
X0059834Y0180698D01*
X0059804Y0180542D01*
X0059771Y0180387D01*
X0059733Y0180234D01*
X0059692Y0180081D01*
X0059647Y0179929D01*
X0059598Y0179778D01*
X0059545Y0179629D01*
X0059489Y0179481D01*
X0059429Y0179335D01*
X0059365Y0179190D01*
X0059297Y0179047D01*
X0059226Y0178905D01*
X0059152Y0178765D01*
X0059074Y0178628D01*
X0058992Y0178492D01*
X0058908Y0178358D01*
X0058819Y0178227D01*
X0058728Y0178098D01*
X0058633Y0177971D01*
X0058536Y0177846D01*
X0058435Y0177724D01*
X0058331Y0177605D01*
X0058224Y0177488D01*
X0058114Y0177374D01*
X0058001Y0177263D01*
X0057886Y0177154D01*
X0057768Y0177049D01*
X0057647Y0176947D01*
X0057524Y0176847D01*
X0057398Y0176751D01*
X0057270Y0176658D01*
X0057140Y0176568D01*
X0057007Y0176482D01*
X0056872Y0176398D01*
X0056736Y0176319D01*
X0056597Y0176242D01*
X0056456Y0176170D01*
X0056314Y0176100D01*
X0056170Y0176035D01*
X0056024Y0175973D01*
X0055877Y0175915D01*
X0055728Y0175860D01*
X0055578Y0175809D01*
X0055427Y0175762D01*
X0055275Y0175719D01*
X0055122Y0175680D01*
X0054967Y0175644D01*
X0054812Y0175613D01*
X0054656Y0175585D01*
X0054500Y0175561D01*
X0054343Y0175541D01*
X0054185Y0175525D01*
X0054028Y0175513D01*
X0053869Y0175505D01*
X0053711Y0175501D01*
X0053553Y0175501D01*
X0053395Y0175505D01*
X0053236Y0175513D01*
X0053079Y0175525D01*
X0052921Y0175541D01*
X0052764Y0175561D01*
X0052608Y0175585D01*
X0052452Y0175613D01*
X0052297Y0175644D01*
X0052142Y0175680D01*
X0051989Y0175719D01*
X0051837Y0175762D01*
X0051686Y0175809D01*
X0051536Y0175860D01*
X0051387Y0175915D01*
X0051240Y0175973D01*
X0051094Y0176035D01*
X0050950Y0176100D01*
X0050808Y0176170D01*
X0050667Y0176242D01*
X0050528Y0176319D01*
X0050392Y0176398D01*
X0050257Y0176482D01*
X0050124Y0176568D01*
X0049994Y0176658D01*
X0049866Y0176751D01*
X0049740Y0176847D01*
X0049617Y0176947D01*
X0049496Y0177049D01*
X0049378Y0177154D01*
X0049263Y0177263D01*
X0049150Y0177374D01*
X0049040Y0177488D01*
X0048933Y0177605D01*
X0048829Y0177724D01*
X0048728Y0177846D01*
X0048631Y0177971D01*
X0048536Y0178098D01*
X0048445Y0178227D01*
X0048356Y0178358D01*
X0048272Y0178492D01*
X0048190Y0178628D01*
X0048112Y0178765D01*
X0048038Y0178905D01*
X0047967Y0179047D01*
X0047899Y0179190D01*
X0047835Y0179335D01*
X0047775Y0179481D01*
X0047719Y0179629D01*
X0047666Y0179778D01*
X0047617Y0179929D01*
X0047572Y0180081D01*
X0047531Y0180234D01*
X0047493Y0180387D01*
X0047460Y0180542D01*
X0047430Y0180698D01*
X0047404Y0180854D01*
X0047383Y0181011D01*
X0047365Y0181168D01*
X0047351Y0181326D01*
X0047341Y0181484D01*
X0047335Y0181642D01*
X0047333Y0181800D01*
D11*
X0069223Y0118611D03*
X0058042Y0113139D03*
X0069223Y0107706D03*
X0058042Y0102233D03*
X0069223Y0096800D03*
X0058042Y0091367D03*
X0069223Y0085894D03*
X0058042Y0080461D03*
X0103632Y0061800D03*
X0103632Y0041800D03*
X0133632Y0041800D03*
X0143632Y0061800D03*
D12*
X0143632Y0086800D03*
X0143632Y0126800D03*
D13*
X0106632Y0126800D02*
X0100632Y0126800D01*
X0100632Y0116800D02*
X0106632Y0116800D01*
X0106632Y0136800D02*
X0100632Y0136800D01*
D14*
X0069223Y0074989D03*
D15*
X0063632Y0047587D03*
X0063632Y0146013D03*
D16*
X0171132Y0054300D03*
D17*
X0171132Y0068080D03*
X0171132Y0081859D03*
X0171132Y0095639D03*
X0171132Y0109418D03*
X0171132Y0123198D03*
D18*
X0186132Y0161800D03*
D19*
X0198632Y0180550D03*
X0211132Y0161800D03*
D20*
X0210332Y0161651D02*
X0196591Y0161651D01*
X0196591Y0160053D02*
X0200207Y0160053D01*
X0200219Y0159946D02*
X0200496Y0158736D01*
X0200906Y0157564D01*
X0201444Y0156446D01*
X0202105Y0155394D01*
X0202878Y0154424D01*
X0203756Y0153546D01*
X0204727Y0152772D01*
X0205778Y0152112D01*
X0206896Y0151573D01*
X0208068Y0151163D01*
X0209278Y0150887D01*
X0210332Y0150768D01*
X0210332Y0161000D01*
X0200101Y0161000D01*
X0200219Y0159946D01*
X0200594Y0158454D02*
X0196591Y0158454D01*
X0196591Y0157468D02*
X0190464Y0151342D01*
X0181800Y0151342D01*
X0175674Y0157468D01*
X0175674Y0166132D01*
X0181800Y0172258D01*
X0190464Y0172258D01*
X0196591Y0166132D01*
X0196591Y0157468D01*
X0195978Y0156856D02*
X0201247Y0156856D01*
X0202214Y0155257D02*
X0194380Y0155257D01*
X0192781Y0153659D02*
X0203644Y0153659D01*
X0205885Y0152060D02*
X0191183Y0152060D01*
X0181082Y0152060D02*
X0073535Y0152060D01*
X0072915Y0153135D02*
X0070755Y0155295D01*
X0068110Y0156822D01*
X0065159Y0157613D01*
X0062105Y0157613D01*
X0059155Y0156822D01*
X0056510Y0155295D01*
X0054350Y0153135D01*
X0052823Y0150490D01*
X0052032Y0147540D01*
X0052032Y0144485D01*
X0052823Y0141535D01*
X0054350Y0138890D01*
X0056510Y0136730D01*
X0059155Y0135203D01*
X0062105Y0134413D01*
X0065159Y0134413D01*
X0068110Y0135203D01*
X0070755Y0136730D01*
X0072915Y0138890D01*
X0074442Y0141535D01*
X0075232Y0144485D01*
X0075232Y0147540D01*
X0074442Y0150490D01*
X0072915Y0153135D01*
X0072391Y0153659D02*
X0179483Y0153659D01*
X0177885Y0155257D02*
X0070793Y0155257D01*
X0067985Y0156856D02*
X0176286Y0156856D01*
X0175674Y0158454D02*
X0038432Y0158454D01*
X0038432Y0156856D02*
X0059280Y0156856D01*
X0056472Y0155257D02*
X0038432Y0155257D01*
X0038432Y0153659D02*
X0054873Y0153659D01*
X0053729Y0152060D02*
X0038432Y0152060D01*
X0038432Y0150462D02*
X0052815Y0150462D01*
X0052387Y0148863D02*
X0038432Y0148863D01*
X0038432Y0147265D02*
X0052032Y0147265D01*
X0052032Y0145666D02*
X0038432Y0145666D01*
X0038432Y0144068D02*
X0052144Y0144068D01*
X0052573Y0142469D02*
X0038432Y0142469D01*
X0038432Y0140870D02*
X0053207Y0140870D01*
X0054129Y0139272D02*
X0038432Y0139272D01*
X0038432Y0137673D02*
X0055567Y0137673D01*
X0057645Y0136075D02*
X0038432Y0136075D01*
X0038432Y0134476D02*
X0061867Y0134476D01*
X0065398Y0134476D02*
X0096429Y0134476D01*
X0096527Y0134284D02*
X0096971Y0133673D01*
X0097505Y0133139D01*
X0098117Y0132695D01*
X0098790Y0132352D01*
X0099508Y0132118D01*
X0100255Y0132000D01*
X0103432Y0132000D01*
X0103432Y0136600D01*
X0095832Y0136600D01*
X0095832Y0136422D01*
X0095950Y0135676D01*
X0096184Y0134957D01*
X0096527Y0134284D01*
X0095887Y0136075D02*
X0069620Y0136075D01*
X0071698Y0137673D02*
X0095911Y0137673D01*
X0095950Y0137924D02*
X0095832Y0137178D01*
X0095832Y0137000D01*
X0103432Y0137000D01*
X0103432Y0136600D01*
X0103832Y0136600D01*
X0103832Y0132000D01*
X0107010Y0132000D01*
X0107756Y0132118D01*
X0108475Y0132352D01*
X0109148Y0132695D01*
X0109759Y0133139D01*
X0110294Y0133673D01*
X0110738Y0134284D01*
X0111081Y0134957D01*
X0111314Y0135676D01*
X0111432Y0136422D01*
X0111432Y0136600D01*
X0103832Y0136600D01*
X0103832Y0137000D01*
X0103432Y0137000D01*
X0103432Y0141600D01*
X0100255Y0141600D01*
X0099508Y0141482D01*
X0098790Y0141248D01*
X0098117Y0140905D01*
X0097505Y0140461D01*
X0096971Y0139927D01*
X0096527Y0139316D01*
X0096184Y0138643D01*
X0095950Y0137924D01*
X0096505Y0139272D02*
X0073135Y0139272D01*
X0074058Y0140870D02*
X0098069Y0140870D01*
X0103432Y0140870D02*
X0103832Y0140870D01*
X0103832Y0141600D02*
X0103832Y0137000D01*
X0111432Y0137000D01*
X0111432Y0137178D01*
X0111314Y0137924D01*
X0111081Y0138643D01*
X0110738Y0139316D01*
X0110294Y0139927D01*
X0109759Y0140461D01*
X0109148Y0140905D01*
X0108475Y0141248D01*
X0107756Y0141482D01*
X0107010Y0141600D01*
X0103832Y0141600D01*
X0103832Y0139272D02*
X0103432Y0139272D01*
X0103432Y0137673D02*
X0103832Y0137673D01*
X0103832Y0136075D02*
X0103432Y0136075D01*
X0103432Y0134476D02*
X0103832Y0134476D01*
X0103832Y0132878D02*
X0103432Y0132878D01*
X0099717Y0131400D02*
X0098027Y0130700D01*
X0096733Y0129406D01*
X0096032Y0127715D01*
X0096032Y0125885D01*
X0096733Y0124194D01*
X0098027Y0122900D01*
X0099717Y0122200D01*
X0107547Y0122200D01*
X0109238Y0122900D01*
X0110532Y0124194D01*
X0111232Y0125885D01*
X0111232Y0127715D01*
X0110532Y0129406D01*
X0109238Y0130700D01*
X0107547Y0131400D01*
X0099717Y0131400D01*
X0099426Y0131279D02*
X0038432Y0131279D01*
X0038432Y0129681D02*
X0097008Y0129681D01*
X0096184Y0128082D02*
X0038432Y0128082D01*
X0038432Y0126484D02*
X0096032Y0126484D01*
X0096446Y0124885D02*
X0038432Y0124885D01*
X0038432Y0123287D02*
X0066301Y0123287D01*
X0066340Y0123315D02*
X0065640Y0122806D01*
X0065028Y0122194D01*
X0064519Y0121494D01*
X0064126Y0120722D01*
X0063858Y0119899D01*
X0063723Y0119044D01*
X0063723Y0118811D01*
X0069023Y0118811D01*
X0069023Y0124111D01*
X0068790Y0124111D01*
X0067935Y0123976D01*
X0067112Y0123708D01*
X0066340Y0123315D01*
X0064660Y0121688D02*
X0038432Y0121688D01*
X0038432Y0120090D02*
X0063920Y0120090D01*
X0063723Y0118411D02*
X0063723Y0118178D01*
X0063858Y0117323D01*
X0064126Y0116500D01*
X0064519Y0115728D01*
X0065028Y0115028D01*
X0065640Y0114416D01*
X0066340Y0113907D01*
X0067112Y0113514D01*
X0067935Y0113246D01*
X0068790Y0113111D01*
X0069023Y0113111D01*
X0069023Y0118411D01*
X0069423Y0118411D01*
X0069423Y0118811D01*
X0074723Y0118811D01*
X0074723Y0119044D01*
X0074587Y0119899D01*
X0074320Y0120722D01*
X0073927Y0121494D01*
X0073418Y0122194D01*
X0072806Y0122806D01*
X0072105Y0123315D01*
X0071334Y0123708D01*
X0070511Y0123976D01*
X0069656Y0124111D01*
X0069423Y0124111D01*
X0069423Y0118811D01*
X0069023Y0118811D01*
X0069023Y0118411D01*
X0063723Y0118411D01*
X0063998Y0116893D02*
X0061783Y0116893D01*
X0061044Y0117632D02*
X0059096Y0118439D01*
X0056987Y0118439D01*
X0055040Y0117632D01*
X0053549Y0116141D01*
X0052742Y0114193D01*
X0052742Y0112084D01*
X0053549Y0110136D01*
X0055040Y0108645D01*
X0056987Y0107839D01*
X0059096Y0107839D01*
X0061044Y0108645D01*
X0062535Y0110136D01*
X0063342Y0112084D01*
X0063342Y0114193D01*
X0062535Y0116141D01*
X0061044Y0117632D01*
X0062885Y0115294D02*
X0064834Y0115294D01*
X0063342Y0113696D02*
X0066755Y0113696D01*
X0068169Y0113005D02*
X0066221Y0112199D01*
X0064730Y0110708D01*
X0063923Y0108760D01*
X0063923Y0106651D01*
X0064730Y0104703D01*
X0066221Y0103212D01*
X0068169Y0102406D01*
X0070277Y0102406D01*
X0072225Y0103212D01*
X0073716Y0104703D01*
X0074523Y0106651D01*
X0074523Y0108760D01*
X0073716Y0110708D01*
X0072225Y0112199D01*
X0070277Y0113005D01*
X0068169Y0113005D01*
X0069023Y0113696D02*
X0069423Y0113696D01*
X0069423Y0113111D02*
X0069656Y0113111D01*
X0070511Y0113246D01*
X0071334Y0113514D01*
X0072105Y0113907D01*
X0072806Y0114416D01*
X0073418Y0115028D01*
X0073927Y0115728D01*
X0074320Y0116500D01*
X0074587Y0117323D01*
X0074723Y0118178D01*
X0074723Y0118411D01*
X0069423Y0118411D01*
X0069423Y0113111D01*
X0069423Y0115294D02*
X0069023Y0115294D01*
X0069023Y0116893D02*
X0069423Y0116893D01*
X0069423Y0118491D02*
X0096354Y0118491D01*
X0096032Y0117715D02*
X0096032Y0115885D01*
X0096733Y0114194D01*
X0098027Y0112900D01*
X0099717Y0112200D01*
X0107547Y0112200D01*
X0109238Y0112900D01*
X0110532Y0114194D01*
X0111232Y0115885D01*
X0111232Y0117715D01*
X0110532Y0119406D01*
X0109238Y0120700D01*
X0107547Y0121400D01*
X0099717Y0121400D01*
X0098027Y0120700D01*
X0096733Y0119406D01*
X0096032Y0117715D01*
X0096032Y0116893D02*
X0074448Y0116893D01*
X0073611Y0115294D02*
X0096277Y0115294D01*
X0097231Y0113696D02*
X0071691Y0113696D01*
X0072326Y0112097D02*
X0166181Y0112097D01*
X0166385Y0112590D02*
X0165532Y0110532D01*
X0165532Y0108304D01*
X0166385Y0106246D01*
X0167960Y0104671D01*
X0170018Y0103818D01*
X0172246Y0103818D01*
X0174304Y0104671D01*
X0175880Y0106246D01*
X0176732Y0108304D01*
X0176732Y0110532D01*
X0175880Y0112590D01*
X0174304Y0114166D01*
X0172246Y0115018D01*
X0170018Y0115018D01*
X0167960Y0114166D01*
X0166385Y0112590D01*
X0167490Y0113696D02*
X0110033Y0113696D01*
X0110988Y0115294D02*
X0225683Y0115294D01*
X0225683Y0113696D02*
X0174774Y0113696D01*
X0176084Y0112097D02*
X0225683Y0112097D01*
X0225683Y0110499D02*
X0176732Y0110499D01*
X0176732Y0108900D02*
X0225683Y0108900D01*
X0225683Y0107302D02*
X0176317Y0107302D01*
X0175337Y0105703D02*
X0225683Y0105703D01*
X0225683Y0104105D02*
X0172938Y0104105D01*
X0169326Y0104105D02*
X0073117Y0104105D01*
X0074130Y0105703D02*
X0166928Y0105703D01*
X0165948Y0107302D02*
X0074523Y0107302D01*
X0074465Y0108900D02*
X0165532Y0108900D01*
X0165532Y0110499D02*
X0073802Y0110499D01*
X0066119Y0112097D02*
X0063342Y0112097D01*
X0062685Y0110499D02*
X0064643Y0110499D01*
X0063981Y0108900D02*
X0061299Y0108900D01*
X0061044Y0106726D02*
X0059096Y0107533D01*
X0056987Y0107533D01*
X0055040Y0106726D01*
X0053549Y0105235D01*
X0052742Y0103287D01*
X0052742Y0101179D01*
X0053549Y0099231D01*
X0055040Y0097740D01*
X0056987Y0096933D01*
X0059096Y0096933D01*
X0061044Y0097740D01*
X0062535Y0099231D01*
X0063342Y0101179D01*
X0063342Y0103287D01*
X0062535Y0105235D01*
X0061044Y0106726D01*
X0062067Y0105703D02*
X0064316Y0105703D01*
X0063923Y0107302D02*
X0059654Y0107302D01*
X0056429Y0107302D02*
X0038432Y0107302D01*
X0038432Y0108900D02*
X0054785Y0108900D01*
X0053398Y0110499D02*
X0038432Y0110499D01*
X0038432Y0112097D02*
X0052742Y0112097D01*
X0052742Y0113696D02*
X0038432Y0113696D01*
X0038432Y0115294D02*
X0053198Y0115294D01*
X0054301Y0116893D02*
X0038432Y0116893D01*
X0038432Y0118491D02*
X0069023Y0118491D01*
X0069023Y0120090D02*
X0069423Y0120090D01*
X0069423Y0121688D02*
X0069023Y0121688D01*
X0069023Y0123287D02*
X0069423Y0123287D01*
X0072144Y0123287D02*
X0097640Y0123287D01*
X0097417Y0120090D02*
X0074525Y0120090D01*
X0073785Y0121688D02*
X0141601Y0121688D01*
X0142538Y0121300D02*
X0140517Y0122137D01*
X0138970Y0123684D01*
X0138132Y0125706D01*
X0138132Y0127894D01*
X0138970Y0129915D01*
X0140517Y0131463D01*
X0142538Y0132300D01*
X0144726Y0132300D01*
X0146748Y0131463D01*
X0148295Y0129915D01*
X0149132Y0127894D01*
X0149132Y0125706D01*
X0148295Y0123684D01*
X0146748Y0122137D01*
X0144726Y0121300D01*
X0142538Y0121300D01*
X0145664Y0121688D02*
X0165696Y0121688D01*
X0165532Y0122084D02*
X0166385Y0120025D01*
X0167960Y0118450D01*
X0170018Y0117598D01*
X0172246Y0117598D01*
X0174304Y0118450D01*
X0175880Y0120025D01*
X0176732Y0122084D01*
X0176732Y0124312D01*
X0175880Y0126370D01*
X0174304Y0127945D01*
X0172246Y0128798D01*
X0170018Y0128798D01*
X0167960Y0127945D01*
X0166385Y0126370D01*
X0165532Y0124312D01*
X0165532Y0122084D01*
X0165532Y0123287D02*
X0147897Y0123287D01*
X0148792Y0124885D02*
X0165770Y0124885D01*
X0166499Y0126484D02*
X0149132Y0126484D01*
X0149054Y0128082D02*
X0168292Y0128082D01*
X0173973Y0128082D02*
X0225683Y0128082D01*
X0225683Y0126484D02*
X0175766Y0126484D01*
X0176495Y0124885D02*
X0225683Y0124885D01*
X0225683Y0123287D02*
X0176732Y0123287D01*
X0176568Y0121688D02*
X0225683Y0121688D01*
X0225683Y0120090D02*
X0175906Y0120090D01*
X0174346Y0118491D02*
X0225683Y0118491D01*
X0225683Y0116893D02*
X0111232Y0116893D01*
X0110911Y0118491D02*
X0167919Y0118491D01*
X0166358Y0120090D02*
X0109848Y0120090D01*
X0109625Y0123287D02*
X0139367Y0123287D01*
X0138472Y0124885D02*
X0110818Y0124885D01*
X0111232Y0126484D02*
X0138132Y0126484D01*
X0138210Y0128082D02*
X0111080Y0128082D01*
X0110257Y0129681D02*
X0138872Y0129681D01*
X0140334Y0131279D02*
X0107838Y0131279D01*
X0109400Y0132878D02*
X0225683Y0132878D01*
X0225683Y0134476D02*
X0110836Y0134476D01*
X0111377Y0136075D02*
X0225683Y0136075D01*
X0225683Y0137673D02*
X0111354Y0137673D01*
X0110760Y0139272D02*
X0225683Y0139272D01*
X0225683Y0140870D02*
X0109196Y0140870D01*
X0097864Y0132878D02*
X0038432Y0132878D01*
X0038432Y0160053D02*
X0175674Y0160053D01*
X0175674Y0161651D02*
X0038432Y0161651D01*
X0038432Y0163250D02*
X0175674Y0163250D01*
X0175674Y0164848D02*
X0038432Y0164848D01*
X0038432Y0166447D02*
X0175989Y0166447D01*
X0177587Y0168045D02*
X0038432Y0168045D01*
X0038432Y0169644D02*
X0179186Y0169644D01*
X0180784Y0171242D02*
X0057114Y0171242D01*
X0057916Y0171457D02*
X0055094Y0170701D01*
X0052171Y0170701D01*
X0049348Y0171457D01*
X0046817Y0172918D01*
X0044751Y0174985D01*
X0043289Y0177516D01*
X0042533Y0180339D01*
X0042533Y0183261D01*
X0043289Y0186084D01*
X0044751Y0188615D01*
X0046817Y0190682D01*
X0049348Y0192143D01*
X0052171Y0192899D01*
X0055094Y0192899D01*
X0057916Y0192143D01*
X0060447Y0190682D01*
X0062514Y0188615D01*
X0063975Y0186084D01*
X0064731Y0183261D01*
X0064731Y0180339D01*
X0063975Y0177516D01*
X0062514Y0174985D01*
X0060447Y0172918D01*
X0057916Y0171457D01*
X0060313Y0172841D02*
X0190712Y0172841D01*
X0190378Y0173174D02*
X0191256Y0172296D01*
X0192227Y0171522D01*
X0193278Y0170862D01*
X0194396Y0170323D01*
X0195568Y0169913D01*
X0196778Y0169637D01*
X0197832Y0169518D01*
X0197832Y0179750D01*
X0187601Y0179750D01*
X0187719Y0178696D01*
X0187996Y0177486D01*
X0188406Y0176314D01*
X0188944Y0175196D01*
X0189605Y0174144D01*
X0190378Y0173174D01*
X0189419Y0174439D02*
X0061968Y0174439D01*
X0063122Y0176038D02*
X0188539Y0176038D01*
X0187961Y0177636D02*
X0064007Y0177636D01*
X0064436Y0179235D02*
X0187659Y0179235D01*
X0187601Y0181350D02*
X0197832Y0181350D01*
X0197832Y0179750D01*
X0199432Y0179750D01*
X0199432Y0169518D01*
X0200486Y0169637D01*
X0201697Y0169913D01*
X0202868Y0170323D01*
X0203987Y0170862D01*
X0205038Y0171522D01*
X0206008Y0172296D01*
X0206886Y0173174D01*
X0207660Y0174144D01*
X0208320Y0175196D01*
X0208859Y0176314D01*
X0209269Y0177486D01*
X0209545Y0178696D01*
X0209664Y0179750D01*
X0199432Y0179750D01*
X0199432Y0181350D01*
X0197832Y0181350D01*
X0197832Y0191582D01*
X0196778Y0191463D01*
X0195568Y0191187D01*
X0194396Y0190777D01*
X0193278Y0190238D01*
X0192227Y0189578D01*
X0191256Y0188804D01*
X0190378Y0187926D01*
X0189605Y0186956D01*
X0188944Y0185904D01*
X0188406Y0184786D01*
X0187996Y0183614D01*
X0187719Y0182404D01*
X0187601Y0181350D01*
X0187726Y0182432D02*
X0064731Y0182432D01*
X0064731Y0180833D02*
X0197832Y0180833D01*
X0197832Y0179235D02*
X0199432Y0179235D01*
X0199432Y0180833D02*
X0225683Y0180833D01*
X0225683Y0179235D02*
X0209606Y0179235D01*
X0209303Y0177636D02*
X0225683Y0177636D01*
X0225683Y0176038D02*
X0208726Y0176038D01*
X0207845Y0174439D02*
X0225683Y0174439D01*
X0225683Y0172841D02*
X0206553Y0172841D01*
X0206896Y0172027D02*
X0205778Y0171488D01*
X0204727Y0170828D01*
X0203756Y0170054D01*
X0202878Y0169176D01*
X0202105Y0168206D01*
X0201444Y0167154D01*
X0200906Y0166036D01*
X0200496Y0164864D01*
X0200219Y0163654D01*
X0200101Y0162600D01*
X0210332Y0162600D01*
X0210332Y0161000D01*
X0211932Y0161000D01*
X0211932Y0150768D01*
X0212986Y0150887D01*
X0214197Y0151163D01*
X0215368Y0151573D01*
X0216487Y0152112D01*
X0217538Y0152772D01*
X0218508Y0153546D01*
X0219386Y0154424D01*
X0220160Y0155394D01*
X0220820Y0156446D01*
X0221359Y0157564D01*
X0221769Y0158736D01*
X0222045Y0159946D01*
X0222164Y0161000D01*
X0211932Y0161000D01*
X0211932Y0162600D01*
X0210332Y0162600D01*
X0210332Y0172832D01*
X0209278Y0172713D01*
X0208068Y0172437D01*
X0206896Y0172027D01*
X0205386Y0171242D02*
X0204592Y0171242D01*
X0203346Y0169644D02*
X0200516Y0169644D01*
X0199432Y0169644D02*
X0197832Y0169644D01*
X0196749Y0169644D02*
X0193079Y0169644D01*
X0192672Y0171242D02*
X0191480Y0171242D01*
X0194677Y0168045D02*
X0202004Y0168045D01*
X0201103Y0166447D02*
X0196276Y0166447D01*
X0196591Y0164848D02*
X0200492Y0164848D01*
X0200174Y0163250D02*
X0196591Y0163250D01*
X0197832Y0171242D02*
X0199432Y0171242D01*
X0199432Y0172841D02*
X0197832Y0172841D01*
X0197832Y0174439D02*
X0199432Y0174439D01*
X0199432Y0176038D02*
X0197832Y0176038D01*
X0197832Y0177636D02*
X0199432Y0177636D01*
X0199432Y0181350D02*
X0209664Y0181350D01*
X0209545Y0182404D01*
X0209269Y0183614D01*
X0208859Y0184786D01*
X0208320Y0185904D01*
X0207660Y0186956D01*
X0206886Y0187926D01*
X0206008Y0188804D01*
X0205038Y0189578D01*
X0203987Y0190238D01*
X0202868Y0190777D01*
X0201697Y0191187D01*
X0200486Y0191463D01*
X0199432Y0191582D01*
X0199432Y0181350D01*
X0199432Y0182432D02*
X0197832Y0182432D01*
X0197832Y0184030D02*
X0199432Y0184030D01*
X0199432Y0185629D02*
X0197832Y0185629D01*
X0197832Y0187227D02*
X0199432Y0187227D01*
X0199432Y0188826D02*
X0197832Y0188826D01*
X0197832Y0190424D02*
X0199432Y0190424D01*
X0203600Y0190424D02*
X0225683Y0190424D01*
X0225683Y0188826D02*
X0205981Y0188826D01*
X0207443Y0187227D02*
X0225683Y0187227D01*
X0225683Y0185629D02*
X0208453Y0185629D01*
X0209124Y0184030D02*
X0225683Y0184030D01*
X0225683Y0182432D02*
X0209539Y0182432D01*
X0211932Y0172832D02*
X0211932Y0162600D01*
X0222164Y0162600D01*
X0222045Y0163654D01*
X0221769Y0164864D01*
X0221359Y0166036D01*
X0220820Y0167154D01*
X0220160Y0168206D01*
X0219386Y0169176D01*
X0218508Y0170054D01*
X0217538Y0170828D01*
X0216487Y0171488D01*
X0215368Y0172027D01*
X0214197Y0172437D01*
X0212986Y0172713D01*
X0211932Y0172832D01*
X0211932Y0171242D02*
X0210332Y0171242D01*
X0210332Y0169644D02*
X0211932Y0169644D01*
X0211932Y0168045D02*
X0210332Y0168045D01*
X0210332Y0166447D02*
X0211932Y0166447D01*
X0211932Y0164848D02*
X0210332Y0164848D01*
X0210332Y0163250D02*
X0211932Y0163250D01*
X0211932Y0161651D02*
X0225683Y0161651D01*
X0225683Y0160053D02*
X0222057Y0160053D01*
X0221671Y0158454D02*
X0225683Y0158454D01*
X0225683Y0156856D02*
X0221018Y0156856D01*
X0220050Y0155257D02*
X0225683Y0155257D01*
X0225683Y0153659D02*
X0218621Y0153659D01*
X0216379Y0152060D02*
X0225683Y0152060D01*
X0225683Y0150462D02*
X0074449Y0150462D01*
X0074878Y0148863D02*
X0225683Y0148863D01*
X0225683Y0147265D02*
X0075232Y0147265D01*
X0075232Y0145666D02*
X0225683Y0145666D01*
X0225683Y0144068D02*
X0075120Y0144068D01*
X0074692Y0142469D02*
X0225683Y0142469D01*
X0225683Y0131279D02*
X0146931Y0131279D01*
X0148392Y0129681D02*
X0225683Y0129681D01*
X0211932Y0152060D02*
X0210332Y0152060D01*
X0210332Y0153659D02*
X0211932Y0153659D01*
X0211932Y0155257D02*
X0210332Y0155257D01*
X0210332Y0156856D02*
X0211932Y0156856D01*
X0211932Y0158454D02*
X0210332Y0158454D01*
X0210332Y0160053D02*
X0211932Y0160053D01*
X0221161Y0166447D02*
X0225683Y0166447D01*
X0225683Y0168045D02*
X0220261Y0168045D01*
X0218918Y0169644D02*
X0225683Y0169644D01*
X0225683Y0171242D02*
X0216878Y0171242D01*
X0221773Y0164848D02*
X0225683Y0164848D01*
X0225683Y0163250D02*
X0222091Y0163250D01*
X0191284Y0188826D02*
X0062303Y0188826D01*
X0063315Y0187227D02*
X0189821Y0187227D01*
X0188811Y0185629D02*
X0064097Y0185629D01*
X0064525Y0184030D02*
X0188141Y0184030D01*
X0193664Y0190424D02*
X0060705Y0190424D01*
X0058124Y0192023D02*
X0225683Y0192023D01*
X0225683Y0193621D02*
X0038432Y0193621D01*
X0038432Y0193850D02*
X0225683Y0193850D01*
X0225683Y0006600D01*
X0038432Y0006600D01*
X0038432Y0193850D01*
X0038432Y0192023D02*
X0049140Y0192023D01*
X0046560Y0190424D02*
X0038432Y0190424D01*
X0038432Y0188826D02*
X0044961Y0188826D01*
X0043949Y0187227D02*
X0038432Y0187227D01*
X0038432Y0185629D02*
X0043167Y0185629D01*
X0042739Y0184030D02*
X0038432Y0184030D01*
X0038432Y0182432D02*
X0042533Y0182432D01*
X0042533Y0180833D02*
X0038432Y0180833D01*
X0038432Y0179235D02*
X0042829Y0179235D01*
X0043257Y0177636D02*
X0038432Y0177636D01*
X0038432Y0176038D02*
X0044143Y0176038D01*
X0045296Y0174439D02*
X0038432Y0174439D01*
X0038432Y0172841D02*
X0046952Y0172841D01*
X0050150Y0171242D02*
X0038432Y0171242D01*
X0038432Y0105703D02*
X0054017Y0105703D01*
X0053080Y0104105D02*
X0038432Y0104105D01*
X0038432Y0102506D02*
X0052742Y0102506D01*
X0052854Y0100908D02*
X0038432Y0100908D01*
X0038432Y0099309D02*
X0053516Y0099309D01*
X0055110Y0097711D02*
X0038432Y0097711D01*
X0038432Y0096112D02*
X0055648Y0096112D01*
X0055040Y0095860D02*
X0056987Y0096667D01*
X0059096Y0096667D01*
X0061044Y0095860D01*
X0062535Y0094369D01*
X0063342Y0092421D01*
X0063342Y0090313D01*
X0062535Y0088365D01*
X0061044Y0086874D01*
X0059096Y0086067D01*
X0056987Y0086067D01*
X0055040Y0086874D01*
X0053549Y0088365D01*
X0052742Y0090313D01*
X0052742Y0092421D01*
X0053549Y0094369D01*
X0055040Y0095860D01*
X0053693Y0094514D02*
X0038432Y0094514D01*
X0038432Y0092915D02*
X0052946Y0092915D01*
X0052742Y0091317D02*
X0038432Y0091317D01*
X0038432Y0089718D02*
X0052988Y0089718D01*
X0053794Y0088120D02*
X0038432Y0088120D01*
X0038432Y0086521D02*
X0055891Y0086521D01*
X0056987Y0085761D02*
X0055040Y0084955D01*
X0053549Y0083464D01*
X0052742Y0081516D01*
X0052742Y0079407D01*
X0053549Y0077459D01*
X0055040Y0075968D01*
X0056987Y0075161D01*
X0059096Y0075161D01*
X0061044Y0075968D01*
X0062535Y0077459D01*
X0063342Y0079407D01*
X0063342Y0081516D01*
X0062535Y0083464D01*
X0061044Y0084955D01*
X0059096Y0085761D01*
X0056987Y0085761D01*
X0055008Y0084923D02*
X0038432Y0084923D01*
X0038432Y0083324D02*
X0053491Y0083324D01*
X0052829Y0081726D02*
X0038432Y0081726D01*
X0038432Y0080127D02*
X0052742Y0080127D01*
X0053106Y0078529D02*
X0038432Y0078529D01*
X0038432Y0076930D02*
X0054078Y0076930D01*
X0056577Y0075332D02*
X0038432Y0075332D01*
X0038432Y0073733D02*
X0063923Y0073733D01*
X0063923Y0072134D02*
X0038432Y0072134D01*
X0038432Y0070536D02*
X0064013Y0070536D01*
X0063923Y0070626D02*
X0064860Y0069689D01*
X0073586Y0069689D01*
X0074523Y0070626D01*
X0074523Y0079352D01*
X0073586Y0080289D01*
X0064860Y0080289D01*
X0063923Y0079352D01*
X0063923Y0070626D01*
X0063923Y0075332D02*
X0059507Y0075332D01*
X0062006Y0076930D02*
X0063923Y0076930D01*
X0063923Y0078529D02*
X0062978Y0078529D01*
X0063342Y0080127D02*
X0064698Y0080127D01*
X0066221Y0081401D02*
X0064730Y0082892D01*
X0063923Y0084840D01*
X0063923Y0086949D01*
X0064730Y0088897D01*
X0066221Y0090388D01*
X0068169Y0091194D01*
X0070277Y0091194D01*
X0072225Y0090388D01*
X0073716Y0088897D01*
X0074523Y0086949D01*
X0074523Y0084840D01*
X0073716Y0082892D01*
X0072225Y0081401D01*
X0070277Y0080594D01*
X0068169Y0080594D01*
X0066221Y0081401D01*
X0065896Y0081726D02*
X0063255Y0081726D01*
X0062593Y0083324D02*
X0064551Y0083324D01*
X0063923Y0084923D02*
X0061076Y0084923D01*
X0060192Y0086521D02*
X0063923Y0086521D01*
X0064408Y0088120D02*
X0062290Y0088120D01*
X0063095Y0089718D02*
X0065551Y0089718D01*
X0066221Y0092307D02*
X0068169Y0091500D01*
X0070277Y0091500D01*
X0072225Y0092307D01*
X0073716Y0093798D01*
X0074523Y0095746D01*
X0074523Y0097854D01*
X0073716Y0099802D01*
X0072225Y0101293D01*
X0070277Y0102100D01*
X0068169Y0102100D01*
X0066221Y0101293D01*
X0064730Y0099802D01*
X0063923Y0097854D01*
X0063923Y0095746D01*
X0064730Y0093798D01*
X0066221Y0092307D01*
X0065612Y0092915D02*
X0063137Y0092915D01*
X0063342Y0091317D02*
X0140151Y0091317D01*
X0139919Y0091148D02*
X0139285Y0090513D01*
X0138757Y0089787D01*
X0138350Y0088988D01*
X0138073Y0088135D01*
X0137932Y0087249D01*
X0137932Y0086984D01*
X0143448Y0086984D01*
X0143448Y0086616D01*
X0137932Y0086616D01*
X0137932Y0086351D01*
X0138073Y0085465D01*
X0138350Y0084612D01*
X0138757Y0083813D01*
X0139285Y0083087D01*
X0139919Y0082452D01*
X0140645Y0081925D01*
X0141444Y0081518D01*
X0142298Y0081240D01*
X0143184Y0081100D01*
X0143448Y0081100D01*
X0143448Y0086616D01*
X0143817Y0086616D01*
X0143817Y0086984D01*
X0149332Y0086984D01*
X0149332Y0087249D01*
X0149192Y0088135D01*
X0148915Y0088988D01*
X0148507Y0089787D01*
X0147980Y0090513D01*
X0147346Y0091148D01*
X0146620Y0091675D01*
X0145820Y0092082D01*
X0144967Y0092360D01*
X0144081Y0092500D01*
X0143817Y0092500D01*
X0143817Y0086984D01*
X0143448Y0086984D01*
X0143448Y0092500D01*
X0143184Y0092500D01*
X0142298Y0092360D01*
X0141444Y0092082D01*
X0140645Y0091675D01*
X0139919Y0091148D01*
X0138722Y0089718D02*
X0072895Y0089718D01*
X0074038Y0088120D02*
X0138070Y0088120D01*
X0137932Y0086521D02*
X0074523Y0086521D01*
X0074523Y0084923D02*
X0138249Y0084923D01*
X0139112Y0083324D02*
X0073895Y0083324D01*
X0072549Y0081726D02*
X0141036Y0081726D01*
X0143448Y0081726D02*
X0143817Y0081726D01*
X0143817Y0081100D02*
X0144081Y0081100D01*
X0144967Y0081240D01*
X0145820Y0081518D01*
X0146620Y0081925D01*
X0147346Y0082452D01*
X0147980Y0083087D01*
X0148507Y0083813D01*
X0148915Y0084612D01*
X0149192Y0085465D01*
X0149332Y0086351D01*
X0149332Y0086616D01*
X0143817Y0086616D01*
X0143817Y0081100D01*
X0143817Y0083324D02*
X0143448Y0083324D01*
X0143448Y0084923D02*
X0143817Y0084923D01*
X0143817Y0086521D02*
X0143448Y0086521D01*
X0143448Y0088120D02*
X0143817Y0088120D01*
X0143817Y0089718D02*
X0143448Y0089718D01*
X0143448Y0091317D02*
X0143817Y0091317D01*
X0147113Y0091317D02*
X0167535Y0091317D01*
X0167960Y0090891D02*
X0170018Y0090039D01*
X0172246Y0090039D01*
X0174304Y0090891D01*
X0175880Y0092466D01*
X0176732Y0094525D01*
X0176732Y0096752D01*
X0175880Y0098811D01*
X0174304Y0100386D01*
X0172246Y0101239D01*
X0170018Y0101239D01*
X0167960Y0100386D01*
X0166385Y0098811D01*
X0165532Y0096752D01*
X0165532Y0094525D01*
X0166385Y0092466D01*
X0167960Y0090891D01*
X0166199Y0092915D02*
X0072833Y0092915D01*
X0074012Y0094514D02*
X0165537Y0094514D01*
X0165532Y0096112D02*
X0074523Y0096112D01*
X0074523Y0097711D02*
X0165929Y0097711D01*
X0166883Y0099309D02*
X0073920Y0099309D01*
X0072610Y0100908D02*
X0169220Y0100908D01*
X0173045Y0100908D02*
X0225683Y0100908D01*
X0225683Y0102506D02*
X0070520Y0102506D01*
X0067925Y0102506D02*
X0063342Y0102506D01*
X0063229Y0100908D02*
X0065835Y0100908D01*
X0064526Y0099309D02*
X0062567Y0099309D01*
X0063923Y0097711D02*
X0060973Y0097711D01*
X0060435Y0096112D02*
X0063923Y0096112D01*
X0064433Y0094514D02*
X0062390Y0094514D01*
X0063003Y0104105D02*
X0065328Y0104105D01*
X0073747Y0080127D02*
X0165788Y0080127D01*
X0165532Y0080745D02*
X0166385Y0078687D01*
X0167960Y0077112D01*
X0170018Y0076259D01*
X0172246Y0076259D01*
X0174304Y0077112D01*
X0175880Y0078687D01*
X0176732Y0080745D01*
X0176732Y0082973D01*
X0175880Y0085031D01*
X0174304Y0086606D01*
X0172246Y0087459D01*
X0170018Y0087459D01*
X0167960Y0086606D01*
X0166385Y0085031D01*
X0165532Y0082973D01*
X0165532Y0080745D01*
X0165532Y0081726D02*
X0146228Y0081726D01*
X0148152Y0083324D02*
X0165678Y0083324D01*
X0166340Y0084923D02*
X0149016Y0084923D01*
X0149332Y0086521D02*
X0167875Y0086521D01*
X0174390Y0086521D02*
X0225683Y0086521D01*
X0225683Y0084923D02*
X0175925Y0084923D01*
X0176587Y0083324D02*
X0225683Y0083324D01*
X0225683Y0081726D02*
X0176732Y0081726D01*
X0176476Y0080127D02*
X0225683Y0080127D01*
X0225683Y0078529D02*
X0175721Y0078529D01*
X0173866Y0076930D02*
X0225683Y0076930D01*
X0225683Y0075332D02*
X0074523Y0075332D01*
X0074523Y0076930D02*
X0168398Y0076930D01*
X0166543Y0078529D02*
X0074523Y0078529D01*
X0074523Y0073733D02*
X0169763Y0073733D01*
X0169774Y0073737D02*
X0168906Y0073455D01*
X0168092Y0073040D01*
X0167354Y0072504D01*
X0166708Y0071858D01*
X0166172Y0071119D01*
X0165757Y0070306D01*
X0165475Y0069438D01*
X0165332Y0068536D01*
X0165332Y0068461D01*
X0170751Y0068461D01*
X0170751Y0073880D01*
X0170676Y0073880D01*
X0169774Y0073737D01*
X0170751Y0073733D02*
X0171513Y0073733D01*
X0171513Y0073880D02*
X0171513Y0068461D01*
X0170751Y0068461D01*
X0170751Y0067698D01*
X0171513Y0067698D01*
X0171513Y0062280D01*
X0171589Y0062280D01*
X0172490Y0062422D01*
X0173359Y0062704D01*
X0174172Y0063119D01*
X0174911Y0063656D01*
X0175556Y0064301D01*
X0176093Y0065040D01*
X0176507Y0065853D01*
X0176789Y0066721D01*
X0176932Y0067623D01*
X0176932Y0067698D01*
X0171513Y0067698D01*
X0171513Y0068461D01*
X0176932Y0068461D01*
X0176932Y0068536D01*
X0176789Y0069438D01*
X0176507Y0070306D01*
X0176093Y0071119D01*
X0175556Y0071858D01*
X0174911Y0072504D01*
X0174172Y0073040D01*
X0173359Y0073455D01*
X0172490Y0073737D01*
X0171589Y0073880D01*
X0171513Y0073880D01*
X0172502Y0073733D02*
X0225683Y0073733D01*
X0225683Y0072134D02*
X0175280Y0072134D01*
X0176390Y0070536D02*
X0225683Y0070536D01*
X0225683Y0068937D02*
X0176869Y0068937D01*
X0176887Y0067339D02*
X0225683Y0067339D01*
X0225683Y0065740D02*
X0176450Y0065740D01*
X0175397Y0064142D02*
X0225683Y0064142D01*
X0225683Y0062543D02*
X0172863Y0062543D01*
X0171513Y0062543D02*
X0170751Y0062543D01*
X0170751Y0062280D02*
X0170751Y0067698D01*
X0165332Y0067698D01*
X0165332Y0067623D01*
X0165475Y0066721D01*
X0165757Y0065853D01*
X0166172Y0065040D01*
X0166708Y0064301D01*
X0167354Y0063656D01*
X0168092Y0063119D01*
X0168906Y0062704D01*
X0169774Y0062422D01*
X0170676Y0062280D01*
X0170751Y0062280D01*
X0169401Y0062543D02*
X0148932Y0062543D01*
X0148932Y0062854D02*
X0148125Y0064802D01*
X0146634Y0066293D01*
X0144687Y0067100D01*
X0142578Y0067100D01*
X0140630Y0066293D01*
X0139139Y0064802D01*
X0138332Y0062854D01*
X0138332Y0060746D01*
X0139139Y0058798D01*
X0140630Y0057307D01*
X0142578Y0056500D01*
X0144687Y0056500D01*
X0146634Y0057307D01*
X0148125Y0058798D01*
X0148932Y0060746D01*
X0148932Y0062854D01*
X0148399Y0064142D02*
X0166867Y0064142D01*
X0165815Y0065740D02*
X0147187Y0065740D01*
X0148932Y0060945D02*
X0225683Y0060945D01*
X0225683Y0059346D02*
X0176607Y0059346D01*
X0176573Y0059405D02*
X0176237Y0059740D01*
X0175827Y0059977D01*
X0175369Y0060100D01*
X0171513Y0060100D01*
X0171513Y0054681D01*
X0170751Y0054681D01*
X0170751Y0053919D01*
X0165332Y0053919D01*
X0165332Y0050063D01*
X0165455Y0049605D01*
X0165692Y0049195D01*
X0166027Y0048860D01*
X0166438Y0048623D01*
X0166895Y0048500D01*
X0170751Y0048500D01*
X0170751Y0053919D01*
X0171513Y0053919D01*
X0171513Y0048500D01*
X0175369Y0048500D01*
X0175827Y0048623D01*
X0176237Y0048860D01*
X0176573Y0049195D01*
X0176810Y0049605D01*
X0176932Y0050063D01*
X0176932Y0053919D01*
X0171513Y0053919D01*
X0171513Y0054681D01*
X0176932Y0054681D01*
X0176932Y0058537D01*
X0176810Y0058995D01*
X0176573Y0059405D01*
X0176932Y0057748D02*
X0225683Y0057748D01*
X0225683Y0056149D02*
X0176932Y0056149D01*
X0176932Y0052952D02*
X0225683Y0052952D01*
X0225683Y0051354D02*
X0176932Y0051354D01*
X0176850Y0049755D02*
X0225683Y0049755D01*
X0225683Y0048157D02*
X0075232Y0048157D01*
X0075232Y0049115D02*
X0074442Y0052065D01*
X0072915Y0054710D01*
X0070755Y0056870D01*
X0068110Y0058397D01*
X0065159Y0059187D01*
X0062105Y0059187D01*
X0059155Y0058397D01*
X0056510Y0056870D01*
X0054350Y0054710D01*
X0052823Y0052065D01*
X0052032Y0049115D01*
X0052032Y0046060D01*
X0052823Y0043110D01*
X0054350Y0040465D01*
X0056510Y0038305D01*
X0059155Y0036778D01*
X0062105Y0035987D01*
X0065159Y0035987D01*
X0068110Y0036778D01*
X0070755Y0038305D01*
X0072915Y0040465D01*
X0074442Y0043110D01*
X0075232Y0046060D01*
X0075232Y0049115D01*
X0075061Y0049755D02*
X0165415Y0049755D01*
X0165332Y0051354D02*
X0074632Y0051354D01*
X0073929Y0052952D02*
X0165332Y0052952D01*
X0165332Y0054681D02*
X0165332Y0058537D01*
X0165455Y0058995D01*
X0165692Y0059405D01*
X0166027Y0059740D01*
X0166438Y0059977D01*
X0166895Y0060100D01*
X0170751Y0060100D01*
X0170751Y0054681D01*
X0165332Y0054681D01*
X0165332Y0056149D02*
X0071475Y0056149D01*
X0073006Y0054551D02*
X0170751Y0054551D01*
X0171513Y0054551D02*
X0225683Y0054551D01*
X0225683Y0046558D02*
X0136408Y0046558D01*
X0136515Y0046504D02*
X0135744Y0046897D01*
X0134920Y0047165D01*
X0134065Y0047300D01*
X0133718Y0047300D01*
X0133718Y0041886D01*
X0133546Y0041886D01*
X0133546Y0041714D01*
X0128132Y0041714D01*
X0128132Y0041367D01*
X0128268Y0040512D01*
X0128535Y0039689D01*
X0128928Y0038917D01*
X0129437Y0038217D01*
X0130049Y0037605D01*
X0130750Y0037096D01*
X0131521Y0036703D01*
X0132344Y0036435D01*
X0133199Y0036300D01*
X0133546Y0036300D01*
X0133546Y0041714D01*
X0133718Y0041714D01*
X0133718Y0036300D01*
X0134065Y0036300D01*
X0134920Y0036435D01*
X0135744Y0036703D01*
X0136515Y0037096D01*
X0137215Y0037605D01*
X0137827Y0038217D01*
X0138336Y0038917D01*
X0138729Y0039689D01*
X0138997Y0040512D01*
X0139132Y0041367D01*
X0139132Y0041714D01*
X0133718Y0041714D01*
X0133718Y0041886D01*
X0139132Y0041886D01*
X0139132Y0042233D01*
X0138997Y0043088D01*
X0138729Y0043911D01*
X0138336Y0044683D01*
X0137827Y0045383D01*
X0137215Y0045995D01*
X0136515Y0046504D01*
X0138135Y0044960D02*
X0225683Y0044960D01*
X0225683Y0043361D02*
X0138908Y0043361D01*
X0138884Y0040164D02*
X0225683Y0040164D01*
X0225683Y0038566D02*
X0138081Y0038566D01*
X0136262Y0036967D02*
X0225683Y0036967D01*
X0225683Y0035369D02*
X0038432Y0035369D01*
X0038432Y0036967D02*
X0058827Y0036967D01*
X0056249Y0038566D02*
X0038432Y0038566D01*
X0038432Y0040164D02*
X0054651Y0040164D01*
X0053601Y0041763D02*
X0038432Y0041763D01*
X0038432Y0043361D02*
X0052755Y0043361D01*
X0052327Y0044960D02*
X0038432Y0044960D01*
X0038432Y0046558D02*
X0052032Y0046558D01*
X0052032Y0048157D02*
X0038432Y0048157D01*
X0038432Y0049755D02*
X0052204Y0049755D01*
X0052632Y0051354D02*
X0038432Y0051354D01*
X0038432Y0052952D02*
X0053335Y0052952D01*
X0054258Y0054551D02*
X0038432Y0054551D01*
X0038432Y0056149D02*
X0055789Y0056149D01*
X0058031Y0057748D02*
X0038432Y0057748D01*
X0038432Y0059346D02*
X0098912Y0059346D01*
X0099139Y0058798D02*
X0100630Y0057307D01*
X0102578Y0056500D01*
X0104687Y0056500D01*
X0106634Y0057307D01*
X0108125Y0058798D01*
X0108932Y0060746D01*
X0108932Y0062854D01*
X0108125Y0064802D01*
X0106634Y0066293D01*
X0104687Y0067100D01*
X0102578Y0067100D01*
X0100630Y0066293D01*
X0099139Y0064802D01*
X0098332Y0062854D01*
X0098332Y0060746D01*
X0099139Y0058798D01*
X0100189Y0057748D02*
X0069234Y0057748D01*
X0075232Y0046558D02*
X0101270Y0046558D01*
X0100630Y0046293D02*
X0102578Y0047100D01*
X0104687Y0047100D01*
X0106634Y0046293D01*
X0108125Y0044802D01*
X0108932Y0042854D01*
X0108932Y0040746D01*
X0108125Y0038798D01*
X0106634Y0037307D01*
X0104687Y0036500D01*
X0102578Y0036500D01*
X0100630Y0037307D01*
X0099139Y0038798D01*
X0098332Y0040746D01*
X0098332Y0042854D01*
X0099139Y0044802D01*
X0100630Y0046293D01*
X0099297Y0044960D02*
X0074937Y0044960D01*
X0074509Y0043361D02*
X0098542Y0043361D01*
X0098332Y0041763D02*
X0073664Y0041763D01*
X0072614Y0040164D02*
X0098573Y0040164D01*
X0099371Y0038566D02*
X0071016Y0038566D01*
X0068438Y0036967D02*
X0101450Y0036967D01*
X0105815Y0036967D02*
X0131002Y0036967D01*
X0129184Y0038566D02*
X0107893Y0038566D01*
X0108691Y0040164D02*
X0128381Y0040164D01*
X0128132Y0041886D02*
X0133546Y0041886D01*
X0133546Y0047300D01*
X0133199Y0047300D01*
X0132344Y0047165D01*
X0131521Y0046897D01*
X0130750Y0046504D01*
X0130049Y0045995D01*
X0129437Y0045383D01*
X0128928Y0044683D01*
X0128535Y0043911D01*
X0128268Y0043088D01*
X0128132Y0042233D01*
X0128132Y0041886D01*
X0128357Y0043361D02*
X0108722Y0043361D01*
X0108932Y0041763D02*
X0133546Y0041763D01*
X0133718Y0041763D02*
X0225683Y0041763D01*
X0225683Y0033770D02*
X0038432Y0033770D01*
X0038432Y0032172D02*
X0049456Y0032172D01*
X0049348Y0032143D02*
X0046817Y0030682D01*
X0044751Y0028615D01*
X0043289Y0026084D01*
X0042533Y0023261D01*
X0042533Y0020339D01*
X0043289Y0017516D01*
X0044751Y0014985D01*
X0046817Y0012918D01*
X0049348Y0011457D01*
X0052171Y0010701D01*
X0055094Y0010701D01*
X0057916Y0011457D01*
X0060447Y0012918D01*
X0062514Y0014985D01*
X0063975Y0017516D01*
X0064731Y0020339D01*
X0064731Y0023261D01*
X0063975Y0026084D01*
X0062514Y0028615D01*
X0060447Y0030682D01*
X0057916Y0032143D01*
X0055094Y0032899D01*
X0052171Y0032899D01*
X0049348Y0032143D01*
X0046709Y0030573D02*
X0038432Y0030573D01*
X0038432Y0028975D02*
X0045110Y0028975D01*
X0044035Y0027376D02*
X0038432Y0027376D01*
X0038432Y0025778D02*
X0043207Y0025778D01*
X0042779Y0024179D02*
X0038432Y0024179D01*
X0038432Y0022581D02*
X0042533Y0022581D01*
X0042533Y0020982D02*
X0038432Y0020982D01*
X0038432Y0019384D02*
X0042789Y0019384D01*
X0043217Y0017785D02*
X0038432Y0017785D01*
X0038432Y0016187D02*
X0044057Y0016187D01*
X0045148Y0014588D02*
X0038432Y0014588D01*
X0038432Y0012990D02*
X0046746Y0012990D01*
X0049595Y0011391D02*
X0038432Y0011391D01*
X0038432Y0009793D02*
X0225683Y0009793D01*
X0225683Y0011391D02*
X0217670Y0011391D01*
X0217916Y0011457D02*
X0220447Y0012918D01*
X0222514Y0014985D01*
X0223975Y0017516D01*
X0224731Y0020339D01*
X0224731Y0023261D01*
X0223975Y0026084D01*
X0222514Y0028615D01*
X0220447Y0030682D01*
X0217916Y0032143D01*
X0215094Y0032899D01*
X0212171Y0032899D01*
X0209348Y0032143D01*
X0206817Y0030682D01*
X0204751Y0028615D01*
X0203289Y0026084D01*
X0202533Y0023261D01*
X0202533Y0020339D01*
X0203289Y0017516D01*
X0204751Y0014985D01*
X0206817Y0012918D01*
X0209348Y0011457D01*
X0212171Y0010701D01*
X0215094Y0010701D01*
X0217916Y0011457D01*
X0220519Y0012990D02*
X0225683Y0012990D01*
X0225683Y0014588D02*
X0222117Y0014588D01*
X0223208Y0016187D02*
X0225683Y0016187D01*
X0225683Y0017785D02*
X0224047Y0017785D01*
X0224476Y0019384D02*
X0225683Y0019384D01*
X0225683Y0020982D02*
X0224731Y0020982D01*
X0224731Y0022581D02*
X0225683Y0022581D01*
X0225683Y0024179D02*
X0224486Y0024179D01*
X0224057Y0025778D02*
X0225683Y0025778D01*
X0225683Y0027376D02*
X0223229Y0027376D01*
X0222154Y0028975D02*
X0225683Y0028975D01*
X0225683Y0030573D02*
X0220556Y0030573D01*
X0217809Y0032172D02*
X0225683Y0032172D01*
X0209456Y0032172D02*
X0057809Y0032172D01*
X0060556Y0030573D02*
X0206709Y0030573D01*
X0205110Y0028975D02*
X0062154Y0028975D01*
X0063229Y0027376D02*
X0204035Y0027376D01*
X0203207Y0025778D02*
X0064057Y0025778D01*
X0064486Y0024179D02*
X0202779Y0024179D01*
X0202533Y0022581D02*
X0064731Y0022581D01*
X0064731Y0020982D02*
X0202533Y0020982D01*
X0202789Y0019384D02*
X0064476Y0019384D01*
X0064047Y0017785D02*
X0203217Y0017785D01*
X0204057Y0016187D02*
X0063208Y0016187D01*
X0062117Y0014588D02*
X0205148Y0014588D01*
X0206746Y0012990D02*
X0060519Y0012990D01*
X0057670Y0011391D02*
X0209595Y0011391D01*
X0225683Y0008194D02*
X0038432Y0008194D01*
X0038432Y0060945D02*
X0098332Y0060945D01*
X0098332Y0062543D02*
X0038432Y0062543D01*
X0038432Y0064142D02*
X0098866Y0064142D01*
X0100077Y0065740D02*
X0038432Y0065740D01*
X0038432Y0067339D02*
X0165377Y0067339D01*
X0165396Y0068937D02*
X0038432Y0068937D01*
X0074433Y0070536D02*
X0165874Y0070536D01*
X0166985Y0072134D02*
X0074523Y0072134D01*
X0105994Y0046558D02*
X0130856Y0046558D01*
X0129130Y0044960D02*
X0107968Y0044960D01*
X0107076Y0057748D02*
X0140189Y0057748D01*
X0138912Y0059346D02*
X0108353Y0059346D01*
X0108932Y0060945D02*
X0138332Y0060945D01*
X0138332Y0062543D02*
X0108932Y0062543D01*
X0108399Y0064142D02*
X0138866Y0064142D01*
X0140077Y0065740D02*
X0107187Y0065740D01*
X0133546Y0046558D02*
X0133718Y0046558D01*
X0133718Y0044960D02*
X0133546Y0044960D01*
X0133546Y0043361D02*
X0133718Y0043361D01*
X0133718Y0040164D02*
X0133546Y0040164D01*
X0133546Y0038566D02*
X0133718Y0038566D01*
X0133718Y0036967D02*
X0133546Y0036967D01*
X0147076Y0057748D02*
X0165332Y0057748D01*
X0165658Y0059346D02*
X0148353Y0059346D01*
X0170751Y0059346D02*
X0171513Y0059346D01*
X0171513Y0057748D02*
X0170751Y0057748D01*
X0170751Y0056149D02*
X0171513Y0056149D01*
X0171513Y0052952D02*
X0170751Y0052952D01*
X0170751Y0051354D02*
X0171513Y0051354D01*
X0171513Y0049755D02*
X0170751Y0049755D01*
X0170751Y0064142D02*
X0171513Y0064142D01*
X0171513Y0065740D02*
X0170751Y0065740D01*
X0170751Y0067339D02*
X0171513Y0067339D01*
X0171513Y0068937D02*
X0170751Y0068937D01*
X0170751Y0070536D02*
X0171513Y0070536D01*
X0171513Y0072134D02*
X0170751Y0072134D01*
X0174730Y0091317D02*
X0225683Y0091317D01*
X0225683Y0092915D02*
X0176066Y0092915D01*
X0176728Y0094514D02*
X0225683Y0094514D01*
X0225683Y0096112D02*
X0176732Y0096112D01*
X0176335Y0097711D02*
X0225683Y0097711D01*
X0225683Y0099309D02*
X0175381Y0099309D01*
X0149194Y0088120D02*
X0225683Y0088120D01*
X0225683Y0089718D02*
X0148543Y0089718D01*
M02*
