%
M48
M72
T01C0.03543
T02C0.03937
T03C0.04000
T04C0.04724
T05C0.12205
T06C0.12598
T07C0.13000
%
T01
X103632Y41800
X103632Y61800
X133632Y41800
X143632Y61800
T02
X143632Y86800
X143632Y126800
T03
X103632Y126800
X103632Y116800
X103632Y136800
X69223Y118611
X58042Y113139
X69223Y107706
X58042Y102233
X69223Y96800
X58042Y91367
X69223Y85894
X58042Y80461
X69223Y74989
T04
X171132Y81859
X171132Y95639
X171132Y109418
X171132Y123198
X171132Y68080
X171132Y54300
T05
X186132Y161800
X198632Y180550
X211132Y161800
T06
X53632Y21800
X213632Y21800
X53632Y181800
T07
X63632Y146013
X63632Y47587
M30
